<?xml version="1.0" encoding="utf-8"?>
<!-- Generator: Adobe Illustrator 24.1.2, SVG Export Plug-In . SVG Version: 6.00 Build 0)  -->
<svg version="1.1"
	 id="svg3" inkscape:version="1.0 (4035a4fb49, 2020-05-01)" sodipodi:docname="ultrasecreto.svg" xmlns:cc="http://creativecommons.org/ns#" xmlns:dc="http://purl.org/dc/elements/1.1/" xmlns:inkscape="http://www.inkscape.org/namespaces/inkscape" xmlns:rdf="http://www.w3.org/1999/02/22-rdf-syntax-ns#" xmlns:sodipodi="http://sodipodi.sourceforge.net/DTD/sodipodi-0.dtd" xmlns:svg="http://www.w3.org/2000/svg"
	 xmlns="http://www.w3.org/2000/svg" xmlns:xlink="http://www.w3.org/1999/xlink" x="0px" y="0px" viewBox="0 0 522.8 95.5"
	 style="enable-background:new 0 0 522.8 95.5;" xml:space="preserve">
<style type="text/css">
	.st0{fill:#680000;}
</style>
<sodipodi:namedview  bordercolor="#666666" borderopacity="1" gridtolerance="10" guidetolerance="10" id="namedview5" inkscape:current-layer="svg3" inkscape:cx="195.52613" inkscape:cy="-25.076779" inkscape:pageopacity="0" inkscape:pageshadow="2" inkscape:window-height="705" inkscape:window-maximized="1" inkscape:window-width="1366" inkscape:window-x="-8" inkscape:window-y="-8" inkscape:zoom="1.1160822" objecttolerance="10" pagecolor="#ffffff" showgrid="false">
	</sodipodi:namedview>
<path id="ultrasecreto" class="st0" d="M46.9,30.2v0.2l0.6,1.1l-0.1,1.6v0.3l0.3,0.4c0.3,0,0.7-0.4,1.1-1.1H49l0.2,0.1l-0.2,0.6
	l0.2,0.5v0.2l-0.8-0.1c-1,0.4-1.5,0.6-1.4,1v0.2l0.6,1.4c2.9-0.1,5.7-0.4,8.5-1.1l0.2,0.5l2.5-0.3l10.7-0.4c2.2,0,4.5-0.5,6.6-1.5
	h0.2l-0.2,0.9V35l0.8-0.2l7.1-0.3h0.2c1.4-0.1,2.6-0.6,3.7-1.5L87,32l0.9-0.4c0.4,0.4,0.9,0.7,1.5,0.6l-0.1,0.7l0.1,1l0.2,0.3h0.4
	c0.6,0,1.1-0.2,1.7-0.4l0.8,0.3v-0.2l0.2-0.2v-0.6c-0.1-1.1-0.2-1.6-0.6-1.6c0.4-0.6,0.5-1.4,0.4-2.2l-0.3-1.4l-0.7,0.2L87,29.7
	h-0.2l0.2-0.9c0-0.4-4.7-0.5-14-0.3l-2.8,0.2c-4.8,0.2-9.6,0.9-14.4,1.9l0.5-0.8v-0.3L46.9,30.2z M57.3,31.5l2.1-1.2
	c0,0.4,0.2,1,0.5,1.2v0.7h-0.6L58,32.8l-0.7-1V31.5z M68.2,31.4l0.2-0.3h0.4c0.7,0,1.4,0.3,2.1,0.6l-0.2,0.6l0.2,0.3l0.7-0.2v0.6
	l-0.7,0.2h-0.7v0.3h-0.4L68.2,31.4z M54.8,32.8l1.2-0.2v0.6c-0.2,0.5-0.7,0.8-1.1,0.8l0.1-0.7L54.8,32.8z M81.7,36.9
	c-0.5,0-1,0.3-1.1,0.8v0.2l1.5-0.1c0.7,0,1.1,0.1,1.2,0.5l-0.4,0.6v0.2c0.1,0.9,0.7,1.3,2.1,1.5l0.9-0.4c-0.1-1-0.3-1.8-0.8-2.7
	l-0.6,0.1L81.7,36.9z M57.4,38.4c-1.7,0.1-2.6,1.3-2.8,3.8v0.3l0.5-0.4h0.2v0.3c-0.3,0-0.7,0.3-0.7,0.6c0,0.2,0.2,0.3,0.8,0.3v0.2
	c0,0.1-0.4,0.4-1.1,0.6v0.2c0.7,0,1.2,0.2,1.8,0.4c1.4,1.7,2.2,2.5,2.4,2.5h0.2c0.4-0.5,1-0.9,1.6-1.1v0.3c-0.1,1.1-0.4,1.8-1.1,1.8
	l-0.6-0.1c-1.2-0.2-2.1-1.3-2.1-2.6l-1.2,0.1c-0.3,0-0.6,0.1-0.8,0.4c-0.2,0.3-0.2,0.5-0.2,0.9c0.6,0.6,1,1.5,1.1,2.4
	c-0.6,0.4-0.9,1.1-0.8,1.9l0.1,1.8c0,0.3,0.6,0.4,1.8,0.4l1.1-0.1c1-0.1,1.9-0.3,2.8-0.6c-0.5,0.9-1.4,1.3-2.4,1.3h-0.2
	c-1,0-2.1-0.2-3-0.5l0.1,0.1l0.2,1.3l0.3,9.9c0.3,3.2,0.7,4.7,1.1,4.7l1.1-0.4c0,0.4,0.2,0.9,0.5,1.2c1.2,0.2,1.9,0.4,1.9,0.8v0.4
	l-0.3,0.4l-1.9-0.4c-0.3,0.1-0.5,0.3-0.5,0.4v0.2c1,2.2,1.6,3.2,1.9,3.2h0.2c0.5-0.5,1.1-0.9,1.8-1h0.4l5,0.4l0.8-0.2l0.6,0.8v0.3
	l-0.2,0.2l-0.4-0.3c-2.3-0.3-3.4-0.5-3.4-0.8l-1.3,0.4L61.7,75l-1.5-0.2l-0.7,0.8c2.6,3.2,6.4,4.6,11.2,4.3c2.5-0.3,3.9-0.5,4.3-0.8
	c2.1,0,4.3-0.5,6.2-1.5c4.7-2.5,6.7-8.8,6.4-18.5l-0.2-5.1c-0.1-1.1-0.4-1.6-1.1-1.5c0.7-0.8,1-1.8,0.8-2.9
	c-0.1-1.1-0.2-2.3-0.6-3.4l-0.8,0.1v0.2l0.4,0.5v0.2l-1.5,0.1l-0.2-0.3c0.1-0.4,0.8-0.9,2.1-1.6v-0.2l-0.2-0.2l0.6-2l-0.3-0.4h-0.2
	L86,42.9c0,0.3-0.1,0.4-0.2,0.4h-0.2c-0.4-0.2-0.7-0.5-0.8-1v-0.3l1.2,0.4c0.2,0,0.3-0.4,0.5-1.1c0-0.4-0.7-0.5-2.1-0.4l-2.8,0.3
	c-0.2,0-0.4,0.1-0.4,0.4v0.2c0,0.2,0.4,0.4,1.1,0.8L82,42.8L80,41.6l0.4-0.2l-0.7-0.8l0.2-0.3c0,0.4,0.2,0.7,0.3,0.7h0.4
	c0.3,0,0.8-0.4,1.3-1.4l-0.2-0.3l-1.3,0c-1.1,0.3-1.7,0.5-1.7,0.8l0.1,1.8c0,0.2,0.2,0.3,0.6,0.3c1.3,0.9,2.2,1.3,2.8,1.3h0.2
	c0.2,0,0.3-0.3,0.3-0.9h0.2c0,0.4,0.3,0.7,0.9,1.1L80.4,45L79,44.8L78.8,45l0.1,3.9c0.1,1.5,0.4,2.5,1.1,3.1h-0.2
	c-0.2,0-0.5,0.1-0.7,0.3C79,52.4,78.9,52.7,79,53l0.3,0.9c0.8,0.8,1.3,1.3,1.3,1.8v0.2L80.5,56l-0.9-0.4h-0.2l-0.2,0.2l0.3,2v7.6
	l0.1,1.8l0.2,0.9v0.2l-0.7-0.3c-0.2,0-0.3,0.7-0.4,2c0.1,0.4,0.2,0.7,0.5,1c-2.3,0.4-3.4,1-3.4,1.5v0.2c1.3,0.1,2.5,0.3,3.8,0.6v0.2
	c-0.7,0-1.1,0.2-1.3,0.5l-0.7-0.5c-0.7,0.2-1.3,0.4-1.9,0.8V74c0-0.2,0.3-0.4,0.9-0.6v-0.2c-0.6-0.1-1.1-0.4-1.5-0.6h-0.4v0.3
	c0.3,0,0.6,0.2,0.6,0.4v0.4l-0.4,0.2l-0.4-0.1v-0.2l0.2-0.2v-0.6l-0.2-0.2l-1.3,0.2c-4.3,0.3-7.1-0.7-8.5-2.8l-1.2-3.5
	c-0.5,0.1-0.9,0.4-1.1,0.8h-0.2v-0.3c0.1-0.4,0.5-0.6,1.1-0.6L63,61.7c0-0.6-0.2-1.2-0.3-1.8c0.2,0,0.2-0.4,0.2-1.1v-0.6
	c-0.1-0.9-0.6-1.7-1.1-2.2c0.9-0.1,1.3-1,1.2-2.8l-0.6-4l0.1-0.9l-0.2-0.2c-0.6,0.1-1.2,0.4-1.7,0.7l-0.2-0.3c0-0.6,0.4-1.2,1.4-1.8
	l0.8,0.1c0.2-0.8,0.3-1.7,0.2-2.5l-0.2-0.8c-0.7-3.6-2.5-5.3-5.1-5.2H57.4z M80.3,38c-0.6,0-1.1,0.4-1.3,1v0.4h0.2
	c0.6,0.1,1.1-0.3,1.3-0.8v-0.2L80.3,38z M80.4,48.1c0-0.7,0.5-1.1,1.6-1.5c0.7,0,1.1,0.1,1.2,0.5c-0.7,0-0.9,0.3-0.9,0.6v0.2
	l-0.8-0.3c-0.2,0.3-0.6,0.4-0.9,0.5L80.4,48.1z M84.1,49.1c0.2-0.5,0.7-0.8,1.3-0.8l0.7,0.1v0.3L86,48.9l-0.2-0.3
	c-0.2,0.4-0.7,0.5-1.1,0.6h-0.4L84.1,49.1z M55.3,57.4h0.2c0.8-0.1,1.6,0.4,2,1.2l-0.1,0.9h-0.7C56.1,59,55.5,58.2,55.3,57.4z
	 M84.7,58.6h0.2l0.2-0.2l1.3-0.1l0.2,0.2c-0.1,0.3-0.2,0.5-0.5,0.6C85.1,59.2,84.7,59,84.7,58.6L84.7,58.6z M62.1,60.6h0.2v0.2h-0.2
	V60.6z M49.9,83.3l-0.2,0.2l0.2,5.7v0.2l0.2,0.3L77.9,88c1-1.2,1.6-1.8,2-1.8c0.5,0.1,0.7,0.3,0.7,0.4l-1.7,1.1v0.3L95.2,87
	l-0.2-1.4l0.1-4.5c0-0.3-0.1-0.4-0.3-0.4L83,81.4l0.3,1.1l-0.5,0.8v0.3h0.6l1.2,0.4v0.4l0.3,1.3v0.2c-1.6,0.2-3.3,0-4.8-0.4v-0.3
	c1.3-0.7,2-1.4,1.9-2V83h-1.8v-0.3c1-0.2,1.5-0.5,1.4-1.1h-0.2l-0.2-0.2l-24.2,1.3L57,83c0,0.4-0.1,0.7-0.2,0.7l-0.1,0.2
	c0-0.7-0.7-1-2-0.9l-4.2,0.4L49.9,83.3z M56.6,87.9l0.4-0.2l1.4,0.4c0,0.2-0.2,0.4-0.7,0.6l-1.1-0.4V87.9z M83,28.2l-0.2,0.3
	l0.2,5.8l0.2,0.3l40.4-2.3c0.2,0,0.4-0.7,0.4-2l-0.3-4l-0.2-0.3L83,28.2z M104.9,30.3l1.1-0.5c0,0.4,0.4,0.7,1.1,1v0.2
	c-1.1,0.1-1.6,0.4-1.6,0.8h-0.4l0.1-1.1L104.9,30.3z M93.7,36.7L92.5,37c-1.8,1.2-2.6,4.1-2.4,8.6l0.1,1.4l1,11.6l0.2,10.9
	c0.4,4.6,0.8,6.8,1.1,6.8c0.7,1.3,2.3,1.9,5.1,1.8l0.9-0.1l7.8-0.7l5.5-0.2l4.6-0.5c2-0.1,3-1.1,2.8-2.7l-0.1-0.9
	c-0.5-2-1.2-3-2.1-2.9c-0.2,0.3-0.6,0.4-0.9,0.5h-0.2l-0.8-0.8l-3.4,0.5l-12.1,0.4l-0.9-18.9l-0.2-0.2c-0.4,0-0.7-0.1-0.7-0.3
	l-0.2-0.2l-0.1-1.8l-0.3-0.9h0.4l0.2,0.2c0,0.3,0.1,0.4,0.3,0.4h0.2l0.2-0.2l-0.2-6.6c-0.1-1.5-0.3-3-0.9-4.4
	C97,37,96,36.6,94.6,36.7L93.7,36.7z M126.1,79l-40.7,2.3l-0.2,0.2c0.2,1.2,0.3,1.9,0.7,2.1c-0.3,0.4-0.5,1-0.5,1.5l0.1,2.3l0.2,0.3
	l40.5-2.3l0.2-0.3l-0.2-5.8L126.1,79z M130.9,25.4l-17.9,1l-0.2,0.2l0.3,3.4v2.7l0.2,0.2l0.2-0.2l6.3-0.2l2.1-0.3V32
	c-0.6-0.2-0.8-0.4-0.8-0.5V31c1.4,0.3,2.2,0.7,2.6,1.3l0.9-0.2l16.4-0.9l16.4-0.8v-0.2l0.2-0.2l-0.3-6l-1.1,0.4l-3.8-0.3h-0.7
	c-0.5,0-0.9,0.2-1.3,0.5l0.5,1.1v0.3c-0.5,0-1.1-0.5-1.7-1.7l-9.5,0.4c-0.9,0-1.9,0.4-2.6,0.9c-0.4-0.4-1.1-0.7-1.6-0.6l-0.9,0.1
	c-2,0.4-3,0.9-2.9,1.3h-0.2C131.2,25.8,131.1,25.4,130.9,25.4z M121.1,27.1l1.2,0.3v0.2l-0.5,0.9h-0.2c-0.2,0-0.3-0.3-0.4-0.9
	L121.1,27.1z M115,29.2l1.2-0.4l0.1,1l-0.9,0.1l-0.4-0.3V29.2z M144.9,28.8l1.4-1.2l0.3,0.7c-0.3,0.5-0.9,0.8-1.5,0.8L144.9,28.8z
	 M148.2,29.3l1.7-0.7l0.1,1h-0.6l-1.5-0.2c-0.2,0-0.4,0.4-0.3,0.9h-0.2l-0.2-0.2l0.2-1.1l0.7,0.1L148.2,29.3z M129.1,31.5
	c0.4-0.7,0.8-1.1,1.1-1.1l0.6,0.3c0,0.4-0.3,0.7-1.1,0.8L129.1,31.5z M142.6,33.6l-4.2,0.4l-1.7,0.1l-1.6,0.3v-0.2h-0.4
	c0.1,0.9-0.4,1.3-1.3,1.5l-0.3-0.7l-2.6,1.6h-0.2l0.1-0.4c0-0.3-0.4-0.6-1.1-1.1l0.2-0.4v-0.2l-0.2,0.2l-5.1,0.3
	c-1.2,0.1-2.5,0.4-3.6,0.8c-0.7,0.5-1,1.5-0.9,2.9v0.6c0.1,0.4,0.2,0.7,0.3,0.7c0.1,1.1,1.6,1.8,4.8,1.8l1.7-0.1
	c3.1-0.2,4.9,0,5.6,0.4l0.6,14.6c0.2,2.1,0.5,4.1,1,6.1c-0.3,1-0.5,2-0.5,3.1c0.1,1.1,0.6,2.1,1.3,2.8h-0.6c-0.6,0-0.8,0.4-0.7,1.2
	l0.1,0.9c0.2,2.7,1.6,4.5,4.3,5.1h0.6c1-0.2,1.9-0.8,2.5-1.8l-0.2-0.3h-0.7l-1.7,0.8h-0.2l0.5-0.8c0-0.2-0.2-0.4-0.7-0.4v-0.2h0.4
	l3,0.1c0.4,0,0.7-0.8,0.6-2.2c-0.1-0.5-0.3-1.1-0.6-1.6c0.2,0,0.4-0.1,0.4-0.4l-0.1-1.8l-0.2-0.2l-1.2,0.4c-0.3,0-0.7-0.2-0.8-0.5
	v-0.2h0.2l0.2,0.2h0.2l1.7-0.7L139.8,41l0.2,0.2l2.8-0.6c0.8-0.1,1.3-0.7,1.4-2.1c1.1,0.5,2.1,0.9,3.3,1v0.2c-0.7,0-1.1,0.3-1.1,0.6
	v0.2l0.2,0.3l0.9-0.1c1.8-0.2,2.7-0.4,2.6-0.9v-0.2l-0.8,0.1l-0.9,0.2v-0.2h-0.2v-0.3l0.7-0.2l2.1,0.4c0.9-0.8,1.4-1.9,1.5-3.1v-0.4
	C152.2,34.2,148.9,33.3,142.6,33.6L142.6,33.6z M137.5,36.8c-0.1-1,0.8-1.8,2.7-2.5c-0.7,2.4-1.5,3.5-2.4,3.6h-0.4v-0.2l0.4-0.2
	L137.5,36.8z M133.5,37.1c0-0.2,0.2-0.4,0.7-0.4l1.5,0.4c0,0.4-0.3,0.7-1.1,0.8h-0.2l0.1-0.7L133.5,37.1z M146.9,37.8
	c0.3-0.6,0.9-1,1.6-1.1l0.4,0.1c-0.6,0.8-1.1,1.2-1.4,1.2L146.9,37.8z M127.8,40.5c0.3-1.1,0.9-1.7,1.6-1.7c0.4,0.2,0.7,0.4,0.7,0.5
	v0.3l-0.8,0.1C128.9,40.2,128.4,40.5,127.8,40.5L127.8,40.5z M134.9,41.2c0.7,0,1,0.3,1,0.8l-0.2,0.7l0.2,0.2
	c1.6,0.2,2.3,0.4,2.3,0.9l-0.2,0.3c-0.7-0.7-1.7-1-2.7-0.9l0.2-0.4L134.9,41.2L134.9,41.2z M134.8,45h0.2l2.4,1.1
	c0,0.2-0.2,0.4-0.7,0.6l-1.5-0.2l0.1-0.7v-0.3c0-0.2-0.2-0.3-0.4-0.3L134.8,45z M135.2,48.3l1.9,0.6v0.2l-1.3,0.4h-0.2v-0.2h0.2V49
	c0-0.3-0.3-0.4-0.8-0.4v-0.2L135.2,48.3z M135.8,50.4h0.4l2.4,1.1v0.6l-0.2,0.2l-1.1-0.3l-0.2,0.3c-0.7-0.3-1.2-0.9-1.3-1.7V50.4z
	 M135.2,60.4h0.7c0.6,0.7,0.9,1.1,1.1,1.1l-0.4,0.4c-0.6,0-1.1-0.2-1.6-0.5L135.2,60.4z M137.5,63.3l1.3,0.1l-0.2,0.6l-1.3-0.1
	L137.5,63.3z M134.7,65.8l0.4-0.4l2.3-0.1v0.4c-1.1,0.1-1.6,0.4-1.6,0.8C135.6,66.1,135.2,65.8,134.7,65.8L134.7,65.8z M130.1,78.6
	l-14.1,1c-0.2,0-0.4,0.1-0.4,0.4l0.1,1.1c0,1,0.3,1.8,0.9,2.5c-0.6,0-0.8,0.2-0.8,0.4l0.1,1.6l0.2,0.3l1.2-0.1c4.9-0.3,8.9-0.6,12-1
	l3.6,0.1c0.2-1,0.3-1.5,0.5-1.5h0.2v0.2l-0.2,0.4v0.6l0.2,0.3l1.6-0.1c0.9-0.1,1.3-0.4,1.3-1.1c0.6,0.4,1.2,0.7,1.9,0.8
	c0.5,0,0.9-0.4,1.1-1l0.4,0.4l-0.2,0.4v0.2l20.2-1.1l0.2-0.3l-0.1-0.9c0-0.6-0.3-1.1-0.9-1.2l0.7-0.8l-0.2-1.4l0.1-1.4
	c-5.1,0-10,0.1-14.7,0.4c-3.1,0.1-6.2,0.5-9.3,1.2C133.9,78.7,132,78.6,130.1,78.6L130.1,78.6z M133.6,79.1c1.5,0.5,2.2,0.9,2.2,1.1
	v0.2h-0.2l-1.1-0.4l-0.4,0.4c-0.2,0-0.4-0.4-0.6-1.1V79.1z M129.1,81.2c0-0.4,0.4-0.7,1.3-1.1h0.2c-0.2,0.5-0.5,1-0.9,1.3h-0.2
	L129.1,81.2z M121.3,82.1h0.2l0.2,1v0.3h-0.4c-0.4-0.4-0.7-0.7-1-0.7v-0.2h0.2l0.6,0.1C121.2,82.7,121.3,82.6,121.3,82.1L121.3,82.1
	z M129.9,83.5l0.4-0.4h0.2c1-0.1,1.5,0.1,1.5,0.4v0.2c0,0.2-0.2,0.4-0.7,0.4C130.4,84,129.9,83.8,129.9,83.5z M148.2,24.3l-0.2,1.5
	h-0.2l-0.2-0.2c-0.2-0.8-0.2-1.1-0.5-1.1h-0.4l-0.2,0.2c0,0.8,0.2,1.6,0.4,2.3l1.5-0.5l0.6,0.5v0.2l-1.3,0.4l-0.8-0.1l0.2,3.3
	l8.9-0.4c1.3-0.2,2.1-0.6,2.2-1.3c0.2,0,0.5,0.4,0.9,1.1l1.2-0.2l20.2-1c2.9-0.2,5.7-0.6,8.5-1.2l0.4,0.7l2.5-0.3
	c0.4,0,0.7-0.5,0.6-1.6l-0.1-1c-0.7-2.5-1.8-3.8-3.3-3.7l-0.9,0.1c-0.7,0.2-1.5,0.5-2.1,1c0-0.4-0.7-0.5-2.2-0.6l-9.5,0.7
	c-0.7,1.2-1.3,1.8-1.6,1.8l0.3-1.8l-7.1,0.4L148.2,24.3z M177.3,26.5c0.1-0.6,0.2-0.9,0.3-0.9c0.5,0.6,1,1,1.4,1v0.3l-0.1,0.1
	C178.4,27,177.8,26.9,177.3,26.5L177.3,26.5z M174,27.2l1.5,0.5l1.1-0.2l0.3,0.9l-0.2,0.3h-0.2c0-0.6-0.2-0.9-0.3-0.9l-1.5,0.4H174
	V27.2z M164.6,31.9c-1.7,0.1-3.5,0.3-5.3,0.6c-2.9,0.2-4.4,2-4.6,5.4l0.1,0.9c0.1,0.7,0.3,1.4,0.7,2c-0.4,0.4-0.7,1.1-0.6,1.8
	c0.2,1.5,0.4,2.3,0.7,2.3c0.6-0.4,0.9-0.6,0.9-0.8c0-0.4-0.3-0.9-1-1.4v-0.4c0.5,0,0.9-0.2,1.3-0.5h0.2c0.1,1,0.5,1.4,1.3,1.4
	l-1.4,1.2v0.2l0.3,0.4l0.2-0.4h0.2l0.3,1v0.2l-2.5-0.4l-0.2,0.7l0.7,9l-0.1,1.1c0.8,0.1,1.2,0.2,1.2,0.4c-0.8,0.3-1.2,0.4-1.1,0.6
	l0.2,4.5l0.3,2c-0.2,0-0.3,0.5-0.3,1.5l0.3,0.9l0.5-0.2c0.8,0.2,1.2,0.4,1.2,0.6v0.4l-0.4,0.2l-1.2-0.4l-0.2,0.3v2.2
	c0.1,0.7,0.2,1,0.5,1c0.4-0.7,1-1.1,1.7-1.4l0.4,0.1v0.2l-2.4,1.4c0.1,1.8,0.7,3,1.8,3.5l1.1-1h0.2v0.4c-0.7,0.2-0.9,0.4-0.9,0.6
	c0,0.3,0.4,0.4,1.1,0.5l0.9-0.4c0.8-0.9,1.9-1.5,3-1.6c-0.1-0.7,0.2-1.4,0.7-1.9c0-0.3-0.4-0.4-1.2-0.4l-1.4-1.5h-0.2
	c0,0.4-0.2,0.5-0.7,0.8v-0.2l-0.2-0.2c0.6-0.5,1.3-0.9,2.1-1.1l-0.2-0.5c0.2-0.9,0.5-1.3,0.9-1.3l0.6,0.1h0.2v-0.7l-0.6-7l0.2-1.8
	c0-0.6,0.7-0.9,2.2-1c1.4,0,2.8,0.4,4.1,1.1c2.8,1.8,4.4,2.6,4.7,2.6v0.4H175l-0.8-0.1H174l-0.2,0.2v0.3c2.5,3.2,3.8,5,3.8,5.3
	l1.7-0.7h0.4c-0.9,0.5-1.3,1.1-1.2,1.8v0.3c0,1.2,0.8,2.3,2.1,2.5l-0.1,0.6c0,0.6,0.7,1.1,1.8,1.8l-0.2,0.4c0,0.2,0.4,0.4,1.1,0.7
	l0.9-1.3h0.7l0.3,1l1.5-0.8c1.5-0.4,2.2-0.9,2.2-1.6v-0.2c-0.2-1.1-0.7-2-1.5-2.8v-0.2h0.4v-0.4l-0.3-0.4c-1.2-0.2-1.9-0.4-1.9-0.6
	l0.7-0.9V64l-0.2-0.4c-1.1-2.5-3.7-5.6-7.9-9.2c0.2-0.8,0.3-1.1,0.5-1.1h0.2l0.4,0.5c0.8-0.1,1.6-1.1,2.3-3.2l1,1.2h0.2
	c0.2,0,0.2-0.3,0.3-0.7c2.5-2.1,3.8-5.3,3.4-8.7l-0.1-1c-0.2-3-1.7-5.5-4.8-7.6C179.6,31.9,174,31.4,164.6,31.9z M176.1,35.1
	l1.8,0.6c-0.1,0.3-0.2,0.5-0.5,0.6c-0.4-0.4-1-0.6-1.5-0.6v-0.2L176.1,35.1z M177.6,37.6c1.7-0.4,2.8-1,3.2-1.3l0.9,2.3
	c-0.6,0.2-1.2,0.4-1.7,0.8c0-0.8-0.8-1.3-2.4-1.6V37.6z M162.8,39c3-0.5,4.5-1.1,4.5-1.6h0.2V38c5.3,0.3,8.5,0.8,9.7,1.5
	c0.1,0.9,0.7,1.6,1.7,2.1c-0.5,1.1-0.8,3.1-0.9,6v0.2l-0.7-0.1h-0.2l-1.7,1V49l1.1-0.1c0,0.2-0.2,0.4-0.7,0.6l-2.2-0.4l-0.2,0.3v0.2
	l0.4,0.4h0.2l-0.1,0.4v0.2l1.5-0.1l0.4,0.4v0.2l-1.2-0.3h-0.4l-0.2,0.3v0.3c0.1,0.2,0.3,0.4,0.7,0.5c0.5-0.1,1-0.4,1.3-0.8v0.4
	c0,0.7,0.5,1,1.4,1c-0.2,0.4-0.6,0.8-1.1,0.8h-2.1c-0.2-1.1-0.5-1.7-1-1.7c-0.2,0-0.4,0.1-0.4,0.4l0.1,1.4h-0.6v0.4l0.2,0.3l0.7-0.6
	h0.2c0,0.6-0.4,0.9-1.1,1H172c-0.3,0-0.7-0.8-0.8-2.5v-0.3h0.2l0.2,0.2h0.4c0.6-0.1,1.1-0.5,1.4-1.1c-0.7-0.8-1.8-1.1-2.9-1l-7,0.5
	h-0.2c-0.2-1.1-0.5-2.1-1-3.2c0-0.2,0.2-0.4,0.7-0.4l-0.3-0.9l0.1-1.6c0-0.4-0.2-0.5-0.4-0.5c0.4-1.2,0.6-2.5,0.5-3.8L162.8,39z
	 M174.9,38l0.4-0.4h0.6c0.7,0,1.1,0.1,1.1,0.4l-0.4,0.2L174.9,38z M158.5,41.5c0.3-1.1,0.9-1.8,1.6-1.8h0.2
	c-0.7,0.8-1.1,1.8-1.1,2.8C159,42.4,158.7,42.1,158.5,41.5z M157.8,46.6c0-0.4,0.7-0.8,2.1-1.2h0.2c0.1,0.4,0.2,0.7,0.6,1l-2.7,0.3
	L157.8,46.6l-0.1,0.2L157.8,46.6z M182.8,47.5c0.6-0.8,1.4-1.3,2.4-1.4h0.2v0.2l-0.2,0.2c-1.2,0.4-1.9,0.9-1.8,1.4v0.2l0.2,0.2h-0.2
	L182.8,47.5z M157.4,49c0.1-0.4,0.2-0.7,0.5-0.8l1.1,0.1l-1.1,1.4C157.7,49.7,157.5,49.6,157.4,49z M160,58.3l1.1-0.1v0.6l0.3,0.9
	h-0.2l-0.2,0.2c-0.5-0.4-0.9-0.8-1.1-1.4L160,58.3z M156.6,63.2l0.2-0.3h0.2c0.2,0,0.4,0.3,0.6,0.7l-0.2,0.3L156.6,63.2z
	 M159.9,69.5h0.2c0.4,0.2,0.7,0.5,0.7,1c0,0.4-0.1,0.8-0.3,0.9l-0.3-0.7l-1.3,0.5h-0.2v-0.6C159.5,70.6,159.9,70.1,159.9,69.5z
	 M161.6,71.3c0.2-0.4,0.5-0.6,0.9-0.6h0.2l0.2,0.3v0.7h-0.2L161.6,71.3z M185.3,75.1L168.2,77l-1.5-0.1v0.3l1.6,0.9l-0.2,0.3h-0.4
	l-0.8-0.8c-0.5,1.1-1,1.7-1.6,1.7v0.2l0.6,1.1l-0.7,2.2v0.2l9.9-0.3l5.1-0.3l9.4-0.8v-0.3h-0.2V81l1.1-0.4h0.2l-0.2,0.7l0.2,0.3h0.2
	c0.7-0.2,1.2-0.6,1.7-1.1h0.2c0,0.7,0.5,1,1.4,1h0.7l0.2-0.3l-0.2-4.2l-0.2-0.3c-0.3,0.1-0.7,0.2-0.9,0.5h-0.2l-0.2-0.3v-0.2
	l0.2-0.2c1-0.4,1.5-0.6,1.5-0.8v-0.6l-0.2-0.3H194c-0.3,0.4-0.7,0.8-1.3,1h-0.2v-0.2l0.2-0.2v-0.2c0-0.4-1.6-0.5-4.8-0.4L185.3,75.1
	z M162.3,76.7c-2.1,0.3-4.1,0.7-6,1.5V78c0-0.2,0.4-0.4,1.3-0.6v-0.3l-8.2,0.4l-0.2,0.3v0.4l0.5,4.5l-0.1,0.9v0.2l0.2,0.2l0.5-0.2
	l4.8-0.1c0.9-0.2,1.3-0.5,1.3-1h0.2c0.7,0.6,1.6,0.9,2.6,0.9c1.4-0.2,2.7-0.7,3.9-1.5v0.4c0.6,0,1.2-0.3,1.6-0.8v-0.2l-0.2-0.2
	l-0.7,0.2l0.1-1.1v-0.3l-1.6-0.4l2.1-2.9l-0.2-0.3H162.3z M150.9,79.2c0-0.4,0.2-0.7,0.9-0.9c1,0,1.5,0.2,1.5,0.4L150.9,79.2
	L150.9,79.2z M159.7,79.8c0-0.2,0.2-0.3,0.7-0.4h0.2l-0.3,1.3c0.1,0.4,0.3,0.7,0.7,0.7v0.3l-0.9,0.2h-0.2v-0.7c0-0.3-0.3-0.4-1-0.4
	c0-0.2,0.3-0.4,0.9-0.6h0.2L159.7,79.8z M167.5,80.1l1.6-0.3c0.4,0,0.7,0.1,0.8,0.4c-0.5,0.6-1.2,1-2,1.1h-0.2L167.5,80.1z
	 M183.3,22.3l-0.2,0.3l0.3,6.1l0.2,0.2l23.6-1.6l23.2-1l0.2-1.1c-0.2-2.9-0.7-4.7-1.7-5.5L183.3,22.3z M228.5,22.8l1.1,0.1l-0.1,0.4
	l0.2,1v0.2h-0.2c-0.4-0.4-0.9-0.6-1.4-0.6h-0.2l-0.2,0.2v-0.2C228.2,23.4,228.5,23,228.5,22.8z M206.9,29.8l-1.5,0.3
	c-3.4,1.7-4.9,4.2-4.8,7.4v0.2c1.4,0.2,2.1,0.4,2.1,0.6l-2.1,0.1c-1.1,2.2-3.1,8.2-5.8,18c-2.7,7-4,11.1-3.9,12.4v0.6
	c0.9,2.5,2.4,3.6,4.4,3.5h0.4c1.1-0.1,2.1-1,2.8-2.7c1-4.8,1.9-7.5,2.7-8.1l4.2-0.3l10.3-0.4l0.7-0.2l0.5,1.8
	c2.1,5.5,4.1,8.2,6.2,8.1c1.6-0.2,2.9-1.1,3.7-2.5c0-0.4-0.5-0.9-1.4-1.5v-0.4h0.2l0.8,0.8l0.4-0.4c-0.2-1.6-0.7-3.1-1.4-4.4
	c-0.2-1.1-0.3-1.8-0.7-1.7h-0.2l-1.1,0.4v-0.2c0.6-0.6,0.9-1.1,0.9-1.3c-2.5-5.3-5.4-12.2-8.9-20.7c-2.1-6.5-4.8-9.6-8.1-9.5
	L206.9,29.8z M207,38.8h0.2c0.3,1.1,0.7,1.7,1.3,1.7l-0.1,0.7v0.4c0,0.7,0.5,1.3,1.5,1.8l0.1,1.6l0.3,1.7c2.2,5.2,3.4,7.9,3.4,8.3
	l-11.2,0.6l0.1-0.7c1.6-4.8,2.5-7.8,2.4-9l-0.1-1.3l-0.2-0.2c0.9-0.4,1.3-0.9,1.3-1.5v-0.2l-0.2-0.2l-0.7,0.8l0.2-0.9
	C206,42.5,206.5,41.2,207,38.8L207,38.8z M203.7,57.5c0.2-0.7,0.7-1.1,1.4-1.2h0.2c-0.5,0.4-0.7,1-0.7,1.6
	C204.3,58,204,57.8,203.7,57.5L203.7,57.5z M185.8,75.4l-0.2,0.3l0.2,4.6c0,0.6,0.2,1.2,0.5,1.7l1.5-0.4l8-0.4c1.1,0,2.1-0.4,3-0.9
	c0.8,0.4,1.7,0.5,2.6,0.6l1.2-0.1l2-0.4v-0.2c0-0.2-0.2-0.3-0.4-0.3v-0.4l0.6,0.3l1.5-0.5h0.2c0.2,0,0.3,0.3,0.4,0.7l-0.2,0.2
	l-1-0.4l-0.2,0.3v0.3l0.2,0.2l19.5-0.8c5.2-0.3,7.8-0.6,7.8-1.1l-0.2-5.8l-0.2-0.3L185.8,75.4z M235.2,19.5
	c-8.6,0.6-12.9,1.1-12.9,1.6l0.2,5.3l0.2,0.3l3-0.2c1,0,2.1-0.3,3-0.7c1.2,0.4,2.5,0.5,3.7,0.5l10.3-0.7h0.2
	c0.2-1.1,0.7-1.8,1.2-1.8l-0.7-0.7V23l0.2-0.2l0.2,0.3c0.7-0.1,1.5,0.1,2.1,0.4l-0.3,1.3v0.2c0,0.4,1.3,0.5,3.8,0.4h0.7
	c2.3-0.1,3.4-0.4,3.4-0.8v-0.2l-0.5-1.4v-0.2l0.7,0.1h0.2l1.7-0.7v0.2l-0.9,0.9v0.2l0.2,0.2l0.8-0.4h0.2l-0.1,0.4
	c0,0.3,0.3,0.6,1,1.2l4.7-0.3c0.2-0.1,0.4-0.4,0.3-0.9l-0.1-2.3l-0.2-0.3l-1.6,0.7h-0.2l-0.2-0.3v-0.3l0.9-0.1
	c0.4,0,0.7-0.2,0.8-0.4l-2-1.3l1.2-0.1c0.5,0,0.9-0.4,1.1-0.8v-0.2l-0.2-0.2L235.2,19.5z M236.6,20.8c0-0.2,0.2-0.4,0.7-0.4l2.1,0.2
	h0.4v0.3c-0.7,0.5-1.5,0.9-2.4,1h-0.2l0.1-0.4v-0.2l-0.7,0.2L236.6,20.8z M250.3,21.9c0-0.2,0.2-0.3,0.5-0.4c0.5,0.2,1,0.4,1.2,1
	v0.3h-0.6l-1.2-0.5L250.3,21.9z M247.1,22.7l0.7-0.9l0.8-0.1l0.2,0.2c-0.2,0.6-0.6,1.1-1.1,1.1h-0.6V22.7z M234.9,23.2l0.4-0.4h0.2
	c0.4,0,0.7,0.1,0.8,0.4v0.4l-0.2,0.2l-0.8-0.4h-0.2l-0.2,0.2v-0.2L234.9,23.2z M248.3,23.8l0.5-0.6l0.9-0.1l1.1,0.3
	c-0.1,0.4-0.5,0.8-0.9,0.8l-1.6-0.2L248.3,23.8z M240.9,27.9c-1.6,0.2-3.3,0.5-4.8,1.1c-5.3,2.6-7.8,6.1-7.6,10.5l0.1,1
	c0,1.8,0.5,3.5,1.5,5l0.8-0.4h0.2v0.3h-0.4v0.3c0.7,1.1,1.6,2,2.5,2.7c1.5,1.1,3.9,1.8,7.2,2l4.1,1.7c4.6,0.5,7,2.4,7.1,5.5
	l-0.1,1.1c-0.5,3.2-3,4.9-7.6,5.2c-2.3,0.3-4.6-0.8-6.1-2.7c-2.1-4.4-3.8-6.6-5-6.5l-0.9,0.1c-1.6,0.1-2.8,1.4-3.3,3.9
	c0.2,1.1,0.5,1.6,0.7,1.6c0.2,1.3,0.6,2.5,1.1,3.7c3,4.5,7.6,6.5,13.6,6.1c2.2-0.2,4.4-0.7,6.6-1.7v-0.2l-0.2-0.2l-0.1-1.3
	c-0.1-1.1-0.5-1.6-1.3-1.5v-0.2l2.7-0.4h0.6c1.3,0,2.1,0.3,2.1,0.6c-1.2,0.1-1.9,0.7-1.8,2v0.2l0.2,0.2c0.4-0.1,0.8-0.3,1.1-0.6
	c0-0.2-0.2-0.3-0.4-0.3v-0.3h0.2l0.8-0.2c3-2.1,4.4-4.6,4.2-7.7l-0.3-1.7c0.4,0,0.7-0.2,0.7-0.4V56l-0.6-0.5l0.2-1.6l-0.2-1.1
	c-1.1-3-2.2-4.5-3.6-4.4l-0.8,0.1v-0.2l0.2-0.4v-0.4c-5.6-2.5-9.9-3.6-12.8-3.4h-0.2v0.2l2,2v0.2h-0.7c-1.6,0-2.3-0.2-2.3-0.6
	l0.5-0.4l-0.6-1.8c0-0.6-1.1-1.1-3.3-1.1l-2.3,0.3h-0.2v-0.6l-0.2-0.7c0.6-0.1,1.1-0.4,1.4-1V40c0-0.2-0.3-0.4-1-0.7
	c0.5-1.4,1.3-2.7,2.2-3.9l-0.2-0.9c0.2-0.7,0.6-1.2,1.1-1.7l-0.3-0.4l-0.1-1l0.2-0.2c0.2,0,0.7,0.2,1.1,0.7h0.2
	c0-0.8,0.4-1.5,1.1-1.7l0.6,0.1v0.3c-1.4,1-2.1,1.7-2.1,2.1l0.2,0.3h0.2c0.4-0.1,0.8-0.3,1.1-0.6h0.2v0.3l-0.2,0.2
	c-0.2,0-0.4,0.1-0.4,0.4c0.1,0.3,0.3,0.4,0.8,0.4l0.8-0.1c0.4,0,0.7-0.3,0.9-0.6l0.8,0.7c3.2,0.9,4.8,1.9,4.8,3.1l1.6-0.4
	c0.7,0,1.4,0.3,1.9,0.8h0.2l-0.2-0.7c0-0.3,0.1-0.4,0.2-0.4l0.6,0.4h0.2l1.2-0.2c0.6,0.2,0.8,0.4,0.8,0.5h-0.6l-0.8-0.1h-0.2
	l0.2,1.4c0,0.4-0.2,0.6-0.7,0.6h-0.2l-0.6-1.1h-0.2c-0.2,0-0.6,0.9-1.2,2.5v0.2l0.2,0.2l1.3-0.2l-0.2,0.9v0.2l0.8-0.1
	c2.1-0.1,3.3-1.5,3.4-4.2c-0.6-3.2-1.6-4.6-3-4.6c-0.2,0-0.2,0.3-0.2,0.7l-1.6,1.5c-0.2-0.3-0.6-0.4-1-0.4l-1,0.1
	c-0.5,0-0.9,0.2-1.3,0.5l-0.2-0.4c-1.1-0.3-1.6-0.8-1.7-1.7l-0.7,0.2l-1.2-0.3v-0.2L250,32l3.5,0.1v-0.3l-0.7-1
	c-2.5-1.8-4.4-2.6-5.7-2.5h-0.2l-0.2,0.2l0.3,0.7h-0.2C245.3,28.2,243.1,27.9,240.9,27.9L240.9,27.9z M242.8,28.9l0.2-0.3h0.2
	l1.4,0.4v0.3l-0.4,0.2l-1.4-0.3V28.9z M244.7,29.8v-0.2c1.6,0.2,2.5,0.4,2.5,0.7l-0.7,0.2l-1.3,0.1l-0.4,0.4l0.2,0.7v0.2h-0.2
	l-0.2-0.2h-0.2l-0.8,0.4v-0.3C244.3,31.3,244.6,30.6,244.7,29.8L244.7,29.8z M233.9,31.2c0.7-0.1,1.6,0.1,2.2,0.6l-1.7,1h-0.2v-0.2
	l0.5-0.2v-0.3c-0.2-0.4-0.6-0.7-0.8-0.7L233.9,31.2L233.9,31.2z M241.6,31l0.4-0.2l1.1,0.1c-0.2,0.5-0.7,0.9-1.1,1h-0.6v-0.2
	l0.5-0.2L241.6,31L241.6,31z M235.4,44c0.1-0.3,0.4-0.4,1.1-0.5h0.2c1.1,0.2,2.1,0.5,2.9,1.1c-0.8,0.9-1.9,1.4-3,1.5
	c-1,0.2-2.1-0.2-2.9-0.9l0.4-0.4l3.5,0.4l0.2-0.3v-0.4l-0.3-0.4c-0.6,0-1.1,0.2-1.7,0.4v-0.2h-0.2L235.4,44z M244.4,46.8l0.1-0.6
	c0-0.4,0.6-0.6,1.7-0.8l0.6,0.1v0.3l-0.4,0.4l-1.2,0.1c-0.2,0-0.3,0.2-0.4,0.6L244.4,46.8L244.4,46.8z M242.7,47.3h0.2l0.2-0.2h0.2
	l1.6,0.2v0.2c0,0.3-0.3,0.5-1.1,0.6C243.2,48.2,242.7,47.8,242.7,47.3L242.7,47.3z M250.3,46.9l0.9-0.1V47l-0.2,0.2v0.2l0.2,0.2
	c0.4,0,0.7,0.1,0.7,0.3L252,48v0.6l-2.5,0.2l-0.1-0.9l0.9-0.4v-0.2l-0.2-0.2L250.3,46.9z M241.1,48.7v-0.2c1.5,0.4,2.2,0.6,2.2,0.9
	v0.4l-2.1,0.1l-0.8-0.3L241.1,48.7z M247.8,50.1c0.3-0.5,0.7-0.9,1.3-1.1l-0.1,0.7v0.6h-0.4L247.8,50.1z M252.6,49l0.2-0.3
	c0.3,0.4,0.7,0.6,1.2,0.6v0.2l-0.4,0.4l-0.8,0.1v-0.7L252.6,49z M250.1,49.5l0.2-0.3l1.3,0.1c0.1,0.6-0.2,1.1-0.7,1.3
	C250.6,50.6,250.4,50.3,250.1,49.5L250.1,49.5z M225.2,73.2l-0.2,0.3v0.4c0.1,1.4,0.2,2.9,0.5,4.3l-0.1,1.3l2.7-0.2
	c0.7-0.2,1.1-0.4,1.1-0.6c1,0.4,2.1,0.7,3.1,0.7l7-0.7l24.9-1.4l0.2-0.3l-0.3-5.9l-0.2-0.2l-5.7,0.4L225.2,73.2z M251.2,74.2
	c0-0.2,0.2-0.4,0.7-0.6h0.2v0.2c-0.3,0-0.5,0.1-0.5,0.4v0.2l0.2,0.2l0.8-0.4h0.2c-0.3,0.7-0.6,1.1-0.9,1.1h-0.2
	c0-0.4-0.2-0.5-0.6-0.5L251.2,74.2z M254.2,18.3l-0.2,0.3l0.1,2l0.2,1.3l-0.1,1.1l0.1,1.4c0,0.2,0.2,0.3,0.6,0.4l3.1-0.4l1.1,0.3
	l0.2-0.3v-0.3c-0.7-0.1-1.1-0.2-1.1-0.4l1.7-0.1l0.2-0.3c0-0.4-0.7-0.6-2.2-0.9c0-0.2,0.3-0.4,0.9-0.5c1.1,0.1,1.6,0.5,1.6,1.2
	l-0.7,1.1v0.2l2.7-0.2l0.2-0.2c-0.4-0.9-1-1.8-1.6-2.5l-3.5-0.7h-0.2c-0.2,0.9-0.4,1.3-0.6,1.3c0-0.6-0.2-0.9-0.4-0.9l-1.5,0.1
	c0.2-0.4,0.4-0.9,0.5-1.3h0.2l1,0.7l0.4-0.4l-1-0.7v-0.2l0.2-0.2l1.5,0.2h0.2c0.2,0,0.3-0.3,0.5-0.9c0.6,0.2,1.1,0.4,1.5,0.8
	c1.6,1.9,2.9,2.9,3.8,2.8h0.2l0.2-0.3l-1-1v-0.2l3.1-0.4h0.2l-0.3,0.4l0.3,1.4l0.8-0.2h0.2c-0.2,0.4-0.5,0.7-0.5,1.1v0.3l0.3,0.4
	l0.2-0.2l3.3,0.3h0.6c0.1-0.9,0.2-1.3,0.3-1.3h0.2l0.4,0.3l1.1-0.4v0.2l0.2,0.2c0,0.2-0.2,0.3-0.5,0.4l0.2,0.3l1.2-0.1l0.2-0.3
	l-0.1-1.4l1,0.3h0.4c0.5-0.5,1.1-0.9,1.7-1.1h0.7v-0.4l-0.6-0.7v-0.2l0.9-0.2h0.2c0.6-0.1,1.1,0.4,1.4,1c-1.4,0.1-3,1.1-4.8,3v0.2
	h0.2l0.2-0.2l1.3-0.1l9-0.2h0.2c1.9-0.1,3.7-0.4,5.5-1.1c0.7,0.6,1.6,1,2.5,0.9l1.3-0.1l0.2-0.3l-0.2-4.6c0-0.6-0.2-1.2-0.5-1.7
	l-2.7,0.3l-0.8,0.1l-12.2,0.4h-0.4c-2.5,0.1-4.9,0.6-7.2,1.6c0-0.5-0.6-0.9-1.6-1.1h-0.7l-0.8,0.4l-3.3,2c-0.7-0.9-1.2-1.4-1.4-1.4
	l-0.2,0.7h-0.4l0.2-0.6l-1.1-0.7l-0.8,0.1l-1.1,1.1c0-0.6-1-0.9-2.9-1l-2.5,0.3L254.2,18.3z M260.9,18.7l0.4-0.2l1.5,0.6
	c0,0.7,0.3,1,0.8,1v0.2c-0.3,0.1-0.7,0.3-0.9,0.6h-0.2v-0.2C261.5,19.9,260.9,19.2,260.9,18.7L260.9,18.7z M268.9,18.7l0.7-0.4h0.2
	l0.8,0.8l-1.1,0.6l-0.6-0.8L268.9,18.7z M268.4,19.5l1,0.3v0.2l-0.4,0.2c0,0.2,0.2,0.3,0.4,0.3v0.3h-0.6c-0.3-0.1-0.6-0.4-0.7-0.7
	L268.4,19.5z M290.4,19.8c-0.1-0.9,0.4-1.4,1.4-1.7c0.2,0,0.3,0.3,0.4,0.7C292.2,19.1,291.6,19.4,290.4,19.8L290.4,19.8z
	 M269.9,20.8c0.2-0.5,0.7-0.9,1.1-1h0.2c-0.3,0.4-0.5,1.1-0.6,1.6h-0.2C270.6,21,270.3,20.9,269.9,20.8L269.9,20.8z M265.3,22.6
	c-0.3,0.1-0.7,0.2-0.9,0.5l1.1,0.7h0.2l0.2-0.4V23l-0.4-0.4H265.3z M283.5,25.9c-1.5,0.1-3,0.4-4.4,0.7v0.3l0.7,0.4l-0.2,0.3H279
	c-0.7,0-1.2-0.4-1.4-1.1h-0.2c0,0.4-0.2,0.6-0.7,0.6c-0.7-0.4-1.6-0.5-2.3-0.6c-0.9,0.1-1.9,0.4-2.6,0.9c-1.6-0.4-3.1-0.5-4.8-0.4
	l-1.7,0.1c-2.3,0.1-3.8,1.1-4.4,3.2c0.1,0.4,0.2,0.5,0.4,0.5l1.2-0.1l0.2-0.2c0.6,0.3,0.8,0.6,0.8,0.8l-0.5,0.4l-1.5-0.5h-0.6
	l-0.2,0.3l1.2,1v0.4c-0.8,0.5-1.2,1-1.3,1.2l0.5,8.1l0.2,3.6l-0.1,1.8l1,0.4h0.2c1.6-2.2,2.6-3.3,3.2-3.3v-0.2l-0.7-0.7v-0.2
	c0.6,0,0.8-0.2,0.8-0.4c-0.2-0.4-0.5-0.5-0.8-0.5v-0.2h0.2c1.1,0.4,1.6,1,1.7,1.9v0.4c0,0.5-0.2,1-0.5,1.3l-1.5-0.5l-0.8,0.2
	c-0.4,1.8-0.8,2.8-1.2,2.8h-0.2l-1-0.1v0.2l-0.2,0.2l0.1,0.9l0.5,2.1l-0.2,1.6v0.2l1.9,0.2c1.2-0.2,2.5-0.5,3.6-1.1v-0.2l-0.2-0.3
	c0-0.5,0.2-1,0.6-1.3h0.4l1,0.8l0.5-0.6l-0.1-1.3l0.2-0.3l2.5-0.2l7.9-0.7l2.9,0.1v-0.2l-0.2-0.9c0-0.7,0.5-1.2,1.6-1.6h0.2
	c-0.7,0.9-1.1,1.6-1.1,2.1v0.2l0.2,0.3l1.5-0.1c2.3-0.1,3.4-1.1,3.4-3.1v-0.2c0-0.6-0.2-1.1-0.6-1.6c-1.1-1.3-3.1-1.8-5.9-1.7
	c-2.1,0.2-4.3,0.7-6.2,1.5v0.3c0.7,0,1.4,0.1,2.1,0.4v0.2h-0.2c-0.2,0.8-0.5,1.1-0.7,1.2h-0.2l-0.2-0.2V45l0.2-0.2v-0.3l-1.6-1.1
	l0.1-0.4v-0.2l-1.2,0.4c-1.3-0.4-2.6-0.6-3.9-0.6l-0.8,0.1l-0.2,0.2c-0.4,1.6-0.9,2.4-1.5,2.4h-0.2c0.7-1.2,1-2.5,1.1-3.9
	c-0.1-1.1-0.4-2-1-2.8c0.7,0,1.1-0.5,1-1.3l-0.4-3.4c0-0.7,0.7-1.1,2.2-1.1l6.2,0.1h0.2c1.1,0,2.1-0.4,3-1.1h0.2
	c0,0.2,0,0.4-0.1,0.4c-0.1,0.1-0.2,0.2-0.4,0.2v0.3l5.4-0.2c2.5-0.2,3.9-1.1,4.2-2.8v-0.2c-0.8,0.1-1.4-0.7-1.7-2.2V27h0.2l0.7,0.4
	l0.2-0.3v-0.2C288.2,26.3,286.4,25.8,283.5,25.9L283.5,25.9z M262.2,28.6c0.4-0.5,1.1-0.9,1.7-0.8l2.5,0.4v0.2l-0.7,0.2l-3.4,0.1
	L262.2,28.6z M276.7,27.6l1.8,0.4v0.2l-0.2,0.3l-1.8-0.4v-0.2L276.7,27.6z M272.6,30l0.7-0.2l0.8-0.1c0.2,0,0.4,0.2,0.4,0.7h0.2
	v-0.3h0.2v0.2c-0.3,0.5-0.9,0.9-1.6,1c-0.2-0.8-0.4-1.1-0.7-1.1V30z M263.2,33.2l0.8,0.1h0.2l0.2-0.2l0.2,1.3
	c-0.8-0.2-1.2-0.4-1.2-0.6L263.2,33.2z M265.8,47.3c0.5,0,1.5-0.6,2.9-1.8l0.7,0.4c0,0.2-0.3,0.4-1.1,0.5c0,0.4,0.2,0.8,0.6,1
	l1.1-0.1v0.3c0,0.2-0.2,0.4-0.7,0.6l-1.5-0.1h-0.2l-0.2,0.2l0.3,0.7v0.2l-1.4-0.2v0.2l-0.2,0.2V50l-1-0.4v-2.2v-0.2H265.8z
	 M277.3,46.1l0.4-0.2l1.8,0.9h0.2c0,0.6-0.4,1.1-1.3,1.4h-0.2v-0.2l0.2-1.3C278.3,46.4,278,46.2,277.3,46.1L277.3,46.1z M267.7,47.1
	c-0.7,0-1.3,0.4-1.7,1v0.3l1.1-0.1c0.4,0,0.7-0.2,0.8-0.4v-0.6L267.7,47.1z M268.5,52.6c-0.6,0.9-1.8,1.4-3.7,1.5l-1.3,0.1
	c-0.6,0.1-1.2,0-1.7-0.2v0.2l-0.2,0.2v0.7l0.7,0.7c-0.4,1.2-0.6,2.6-0.5,3.9l0.1,1.8c0.1,1.5,0.4,3,0.7,4.4c0.1,1.7,2.3,2.3,6.7,2.1
	l2.4-0.2c1.9-0.1,3.7-0.4,5.5-1.1c2.5,0.4,5.2,0.5,7.7,0.4l1.9-0.1c3.4-0.2,5-1.7,4.9-4.3l-0.2-0.7c-1-1.6-3.2-2.3-6.8-2.1l-4,0.3
	l-0.4,0.6v0.2l-2.1-0.2h-0.6c-0.7,0-1.1,0.3-1.1,0.6c-1.8-0.5-3.6-0.6-5.4-0.4c-1,0.1-1.9-0.6-2.1-1.6c0.5-0.4,0.7-1.7,0.7-3.8
	l-0.2-2.9l-0.2-0.3L268.5,52.6z M264.3,60.2c-0.1-1.7,0.6-2.5,2.1-2.5c-0.2,1.7-0.9,2.5-1.9,2.5H264.3z M269,63.6l0.4-0.2l1.1,0.3
	c-0.7,1.5-1.2,2.2-1.5,2.3l-0.2-0.2l0.5-0.8l-0.1-0.9L269,63.6L269,63.6z M284.1,64.9l0.7-0.2h0.6l0.1,1.1l0.3,0.4v0.2h-0.4
	C284.7,65.8,284.4,65.4,284.1,64.9L284.1,64.9z M295.9,69.1c-1.5,0.3-2.9,0.9-4.1,1.7h-0.2c0-0.2,0.2-0.4,0.8-0.4v-0.6l-10,0.3
	c-2.5,0.2-4.9,0.5-7.4,1v0.3h0.4v0.3l-0.4,0.2c-0.3-0.2-0.7-0.3-1.1-0.3v-0.2l0.2-0.4v-0.3l-0.2-0.2l-1.2,0.2l-1.7-0.1
	c-1.6,0.1-2.5,0.4-3.2,1.2h-0.2l-1.1-1h-0.2c0.1,0.9-0.8,1.3-2.5,1.4h-0.2c-0.2,0-0.3-0.4-0.6-1h0.2l-0.2-0.3l-6.1,0.4l-0.2,0.3
	l0.2,4c0,0.2,0.3,0.4,1,0.5c1.1-0.5,2.4-0.9,3.6-1.1h0.4c1.1-0.2,2.3,0.3,3.1,1.1c-1.2-0.3-2.5-0.4-3.7-0.4h-0.7
	c-1.2,0.1-2.5,0.5-3.6,1.2v0.3l6.7,0.1l17.1-1.1h0.2c0.4-0.8,1.2-1.3,2.1-1.4h0.2V75c-1,0.3-1.5,0.5-1.5,0.8V76l0.2,0.2h0.2l0.2-0.2
	l1.1-0.1l2.1,0.2h0.2c0.4,0,0.8-0.4,0.9-0.8l-0.3-0.5v-0.2c0.4-0.1,0.9-0.9,1.5-2.3c0.6,0.2,0.9,0.4,1,0.7v0.2l-0.8,0.2v0.3l0.7,0.1
	l4.3-0.3l1.3-0.2c0,0.8,0.5,1.1,1.2,1.1v0.4l-0.4,0.2c-0.4,0-1-0.4-1.6-1.2H293l-0.2,0.2l-0.4,0.6H292l-0.8-0.7
	c-0.2,0-0.2,0.3-0.2,0.7l-1.1,0.1l-0.5,0.4c0,0.5,2.7,0.6,8.1,0.4l0.2-0.4v-0.4l-0.6-3.6l0.2-1.1C297.3,69.4,296.6,69.1,295.9,69.1
	L295.9,69.1z M266.1,72.3l1.2-0.4h0.2l0.2,0.2l-0.7,0.6l0.5,1.2v0.2c-1-0.6-1.6-1.2-1.6-1.8L266.1,72.3z M279.6,73.5
	c0-0.3,0.2-0.4,0.8-0.4c0.1-0.6,0.2-0.9,0.3-0.9h0.2c0.9,0,1.4,0.3,1.4,0.8v0.2l-1.3,0.1l-1.5,0.5V73.5z M268.9,75.6
	c0-0.4,0.5-0.6,1.5-0.8h0.2l0.4,0.4v0.3L268.9,75.6z M271.5,75.7c0.1-0.4,0.4-0.7,0.7-0.6h1.1v0.2c-0.1,0.3-0.3,0.4-0.8,0.4H271.5z
	 M285,75.5l0.4-0.2h0.2l-0.4,0.4L285,75.5z M288.7,16.3c-1.8,0.4-2.6,0.6-2.6,1.1l0.2,0.3h0.2c0-0.3,0.1-0.4,0.2-0.4l0.9-0.1
	l-0.2,0.4v0.2l0.6,0.7l-1.1-0.3l-0.2,0.3c0,0.4-0.1,0.6-0.4,0.6v2.2c0.1,1.1,1.6,1.5,4.8,1.3l1.2-0.1c1,0,1.9-0.4,2.5-1.1l-0.2-0.3
	h-0.2l-2.5,0.6L291,20c0.1-0.3,0.2-0.5,0.5-0.6c0.9,0.5,1.9,0.9,2.9,0.9l1.6-0.5v-0.3l-1.5,0.1l-0.2-0.3V19l1,0.1L296,19l0.2-0.2
	l1.3,1.5v0.3l-1-0.7h-0.2l-0.2,0.2l0.2,0.4l-0.2,1.1c0.2,0.5,0.4,0.9,0.6,0.8l27.3-1.5c0.4-0.8,1.1-1.3,2-1.6h0.2l-0.1,0.4l0.4,0.4
	l-0.2,0.4v0.2l7-0.4l0.2-0.3l-0.3-5.9l-0.2-0.2l-2.1,0.3l-3.8,0.1l-2.1,0.1l-7.3,0.3l-3.6,0.4c-0.2,0-0.2,0.3-0.2,0.7l-1.1,2.1
	l-0.8,0.1c-0.4,0.1-0.8,0.3-1.1,0.6h-0.2l0.2-0.6l-0.3-0.5v-0.3h0.2l0.2,0.2l1.2-0.1c0.5-0.3,0.7-0.5,0.7-0.9v-0.2l-0.2-0.2
	l-1.6,0.5h-0.2l-0.4-0.5c1.4-0.2,2.1-0.4,2.1-0.7v-0.2l-7,0.3l-3,0.2c-2.4,0-4.8,0.4-7.1,1.2c0-0.3-0.4-0.5-1.2-0.6l-0.9,0.1
	l-1.1,0.5c0-0.2-0.3-0.4-1-0.4h-0.2l-0.2,0.2l0.3,0.9v0.2h-0.7C289.8,17.3,289.2,16.8,288.7,16.3L288.7,16.3z M296.3,17l0.9-0.1
	l0.1,1.6C296.6,18.5,296.3,18.1,296.3,17L296.3,17z M307.7,16.7l1.5-0.1c0,0.7,0.2,1,0.7,1c0,0.4-0.6,0.6-1.7,0.8
	C308,18.4,307.9,17.8,307.7,16.7L307.7,16.7z M299.6,18.8c0-0.4,0.5-0.6,1.5-0.8h0.2v0.4l-0.2,0.4l-0.6-0.1l-0.7,0.2L299.6,18.8z
	 M317.2,17.2l0.8-0.1l-0.2,1.1c0,0.3,0.3,0.4,0.8,0.4c0,0.3-0.4,0.4-1.3,0.6c-0.4,0.1-0.8-0.2-1-0.5v-0.3l0.4,0.3h0.2l0.4-0.4
	L317.2,17.2z M292.4,19.1l1.1-0.5h0.2v0.3c-0.2,0-0.3,0.1-0.4,0.2s-0.2,0.3-0.1,0.4h-0.4L292.4,19.1L292.4,19.1z M300,19.4h0.4
	l0.7,0.7h0.2l0.2-0.2l0.2,0.4l-0.4,0.4h-0.2l-1-0.1L300,19.4z M287.8,20.9l2,0.9V22h-0.2c-1.1-0.3-1.6-0.5-1.6-0.9L287.8,20.9z
	 M297.3,21.3l0.9-0.4l2.1-0.1c0,0.3-0.5,0.4-1.5,0.5l-1.3,0.1l-0.2,0.2V21.3z M310.3,24c-3,0.1-5.9,1.1-8.4,3.1
	c-0.8,1-1.4,1.5-2,1.6c-1.6,0.9-3,2.8-4.2,5.9c-1.6,5.6-2.2,9.7-2.1,12.3c0.1,1.1,0.3,1.6,0.7,1.6l0.1,0.9c0.2,2.8,0.9,5.5,2.1,8
	c2.5,4.6,5,6.7,7.6,6.7v0.3l-0.8-0.3l-0.2,0.3v0.3c2.8,1.2,5.8,1.8,8.9,1.8l1.7-0.1c1,0,2-0.4,2.6-1.1l1.2,0.3l0.8-0.1
	c1.4-0.4,2.5-1.1,3.4-2.4v-0.3h-0.2l-0.7,0.2v-0.3l0.7-0.2l1.2-0.1l0.4-0.4v-0.3l-1.6,0.3h-0.2c0-0.4-0.2-0.7-0.5-1l0.9-0.1l2.5-1.4
	v-0.3l-1.9-0.4v-0.2l0.2-0.3h0.2l1.1,0.7l0.5-0.4c0-0.6-0.4-0.9-1.1-1h-0.2l-1.9,0.4c-0.9-0.1-1.4-0.4-1.4-1.1l2.3-0.1v-0.4
	l-0.2-0.2l0.8,0.1c1.6,1.1,2.6,1.8,3,1.7v0.2c-0.7,0.2-1.1,0.3-1.1,0.5v0.2c0,0.2,0.4,0.4,1.1,0.5h0.2c1.5-2.9,2.1-5.3,2.1-7.2V52
	c0-1.8-1.2-3.5-3-3.7v0.3c-0.5,1.1-0.9,2.3-1.1,3.5v0.4h-0.7c-0.5,0.1-1,0.4-1.3,1l-0.8-0.1l-1.7,2.5v0.7l-0.5,0.2l0.2,1l-0.2,0.3
	c0-0.4-0.2-0.7-0.5-1l-0.4,0.4c-0.8,0.4-1.3,0.7-1.3,1v0.3c2.6,0.3,3.9,0.6,3.9,1v0.2h-0.2l-3,1.1l-1.5-0.4v-0.2h0.2l0.7,0.3
	l0.2-0.3c0-0.4,0.3-0.8,1.1-1.1c0-0.4-1.1-0.4-3.3-0.4c-1.3,0-2.5,0.4-3.6,1.2l-0.2-0.3l-1.2,0.1l-0.2-0.3c0.7,0,1.1-0.2,1.1-0.4
	v-0.2l-1.1-0.1l-1.1,0.5l-0.4-0.9c-1.9-1.1-3-2-3.1-2.7l-0.7,0.2h-0.2c-0.6,0.1-1.1-0.3-1.2-0.8c0.4,0,0.7-0.3,0.9-0.6v-0.4
	l-1.3-2.5l0.1-1.1h-0.6c-0.4,0.4-0.9,0.8-1.4,1h-0.2v-0.2l0.2-0.9l1.5-0.1l0.2-0.1l-0.3-0.7l0.2-0.7V49l-0.2-0.2
	c-0.4,0-0.7-0.1-0.7-0.3c0.6,0,0.8-0.2,0.8-0.4v-0.3c-0.1-0.9-0.3-1.7-0.7-2.5c-0.9-0.2-1.4-0.4-1.4-0.6v-0.2h0.2l0.2,0.2h0.4
	c0.2-0.4,0.6-0.5,0.9-0.5l-0.1-1.1c0-0.8,0.1-1.7,0.2-2.5c1.3-3.6,2-6,2-6.8v-0.2h0.7c0.5,0,1.2-0.6,2.1-1.7
	c1.1-0.1,1.6-0.8,1.5-2.1l-0.3-1h0.2l0.1-0.3h0.2v0.2l-0.2,0.2v0.2c0.5,1.1,0.8,1.7,1,1.7h0.4l0.2-0.3l-0.5-1.4l0.2-0.3h0.4l0.4,0.4
	v0.2l-0.1,1.1h0.2l0.2,0.2h0.4c0.3-0.4,0.7-0.7,1.1-0.8v0.7l0.2,0.3h0.7c1,0,2,0.3,2.9,0.9c0.8,1,2,1.4,3.2,1.2v0.2l-0.2,0.2v0.7
	c0.1,1.1,0.7,2.1,2.1,3.1l-0.1,0.7v0.6c0.4,0.6,1.1,1,1.8,0.9l1.1-0.1c2.5-0.5,3.7-1.5,3.6-2.8v-0.6c0-0.4-0.6-1.3-1.6-2.5l0.3-1.5
	l-1.4-0.5l0.4-0.6v-0.2c-0.1-0.9-0.9-1.8-2.7-2.7c-0.1,1-0.2,1.5-0.5,1.5h-0.4v-0.2l0.4-2c-3.1-2.3-6.9-3.3-10.7-3L310.3,24z
	 M308.5,27.2l1,0.3c0,0.3-0.3,0.6-0.9,0.9L308.5,27.2z M298.4,33.5l0.7-0.2h0.2l1,0.7h0.7l0.2-0.2c0,0.4-0.4,0.6-1.3,1
	c-0.8,0.1-1.2-0.4-1.2-1.1L298.4,33.5z M323.1,32.2l0.8-0.4h0.2l0.2,0.2c0.3,1,0.7,1.4,1.3,1.4l-0.5,0.4l-0.8-0.1h-0.6l-0.5-1.4
	L323.1,32.2z M319.6,33.5l0.9-0.4c0.7,0.2,1,0.4,1,0.5v0.6c-0.7,0.1-0.9,0.4-0.9,0.6h-0.2l-0.2-0.2l0.1-0.4v-0.2L319.6,33.5
	L319.6,33.5z M323.8,34.6c0.2,0.3,0.6,0.4,1,0.4h0.2l1.3-0.5l0.1,1l-1.3,0.2c-0.5,0-1-0.2-1.4-0.5L323.8,34.6z M295.4,38.4
	c0-0.6,0.4-1.1,1.4-1.4v0.2h0.2v0.7l1.2,1.1c0,0.4,0.5,0.5,1.5,0.5v0.2c-1.1,0.4-1.6,1.1-1.6,1.9l-2.5,0.2v-0.2l0.7-1.2l-0.3-0.5
	v-0.2c0.8-0.3,1.1-0.5,1.1-0.8v-0.2l-0.2-0.3c-0.4,0.1-0.8,0.3-1.1,0.6h-0.2L295.4,38.4z M299,42.2c0-0.6,0.3-1.1,1-1.3v0.2h0.2v0.2
	c-0.4,0.3-0.7,0.8-0.6,1.3l-0.7-0.1V42.2z M296.6,42.9h0.2c0.7,0.1,1.3,0.4,1.8,0.9l-0.4,0.2c-0.2-0.4-0.6-0.6-1-0.5H297l-0.2,0.2
	L296.6,42.9z M295.8,46.1c0-0.4,1-0.7,3-1.1l-0.2,1.1l-0.7-0.3l-2.7,0.4c-0.2,0-0.4-0.1-0.4-0.3v-0.2h0.2L295.8,46.1z M295,48
	c0-0.2,0.1-0.3,0.4-0.4l0.2-0.2c1.1-0.1,1.7-0.2,1.9-0.4v0.3c-0.5,0.4-1,0.5-1.6,0.7h-0.2L295,48z M296.2,51.4l0.5-0.4
	c1.6-0.1,2.9,0.8,3.8,2.5h-0.2c-0.6-0.1-1.1-0.4-1.5-0.8c-0.5,0.7-1.1,1.1-2,1.2l-0.7-0.7v-0.2l0.8,0.4h0.2l0.2-0.3v-0.3
	C296.6,52.3,296.2,51.8,296.2,51.4L296.2,51.4z M321.9,50.3l-0.4,0.4v0.2l0.4,0.4h0.2l1.2-0.4v-0.2l-0.8-0.5H321.9z M295.9,53.9
	l0.6,0.1c0,0.2-0.2,0.4-0.7,0.4L295.9,53.9L295.9,53.9z M297.9,54.5h0.2l0.8,0.4V55l-0.2,0.2v0.4c0,0.3,0.7,0.4,2.1,0.4v0.2
	c-1.1,0.3-2.1,0.7-3,1.3h-0.2l0.2-0.4l-0.7-0.7V56c0.6,0,0.8-0.2,0.8-0.4v-0.2L297.9,54.5z M304.5,58.2c0.3,0,0.7,0.6,1.1,1.9
	l1.9-0.3l1,0.1v0.2l-0.9,0.4l-3.1-0.3h-0.2v-0.2L304.5,58.2z M311.6,61.3h0.4c0.6,0.6,1.3,1,2.1,1.1c-0.5,1.1-1,1.7-1.4,1.7
	c-0.2-0.9-0.5-1.8-1.1-2.4V61.3z M315.9,63.1c0-0.7,0.4-1.1,1.4-1.4h0.2c0,0.7-0.4,1.2-1.3,1.5L315.9,63.1L315.9,63.1z M314.5,63.7
	l1.3,0.1l0.5-0.2h0.2c-0.1,0.3-0.2,0.5-0.5,0.6l-1.5-0.1h-0.2v-0.3L314.5,63.7z M316,67.9l-0.5,0.2c-9.4,0.7-14.1,1.2-14.1,1.7
	c-0.7-0.5-1.7-0.8-2.6-0.7l-6.4,1.2c-1.1-0.1-2.3-0.3-3.4-0.7v0.3l0.2,0.2c-0.4,1.6-0.6,3.2-0.6,4.8v0.4c0,0.4,0.2,0.8,0.6,1
	l2.3-0.1l29.7-2.1l3.4,0.1h0.2l0.4-0.4l1.1,0.4h0.7c0.3-0.2,0.5-0.4,0.5-0.8c0.5,0.5,1.2,0.8,1.9,0.8l1.1-0.1l4.5-0.7h0.4
	c0.3,0,0.4-0.6,0.4-1.9c-0.1-1.1-0.2-1.6-0.5-1.6l0.3-1.1l-0.2-1.3h-0.2l-1.9-0.2c-0.3,0.1-0.5,0.3-0.5,0.4V68l0.2,0.2l1.1-0.4h0.2
	l-0.3,1.1l0.6,0.8v0.2l-0.2-0.2c-1.6-0.2-2.5-0.4-2.5-0.6v-0.2l0.2-0.2l1,0.1h0.4l0.2-0.2c0-0.2-0.4-0.4-1.1-0.5l0.1-0.9v-0.2
	l-0.2-0.2c-0.9,0.1-1.3,0.5-1.3,1.4c-1.1-0.7-2.3-1.1-3.5-1h-0.4c-0.7,0-1.2,0.4-1.6,1c-0.8-0.6-1.7-0.9-2.7-0.9h-0.2l-4.6,0.5H316z
	 M306.7,71.2c0-0.6,0.3-1.1,1.1-1.4l0.3,0.9c-0.2,0.3-0.6,0.4-0.9,0.5H306.7z M321.6,70.8l1.2,0.4v0.2c-0.3,0.7-1,1.2-1.7,1.2v-0.3
	l0.7-0.9l-0.2-0.3V71L321.6,70.8z M330,72.2c0.1-0.5,0.2-0.7,0.3-0.7h0.6c0.2,0.1,0.5,0.4,0.7,1l-0.2,0.3h-0.2
	C330.7,72.8,330.3,72.5,330,72.2z M309.4,73.1v-0.2l2.1,0.4h0.2c0.4,0,0.8-0.2,1.1-0.5v0.6c-1.5,0.3-2.3,0.5-2.2,0.9
	C310.3,74.2,309.8,73.8,309.4,73.1L309.4,73.1z M322.9,14.6l-0.2,1.5h-0.2l-0.2-0.2c-0.2-0.8-0.2-1.1-0.5-1.1h-0.4l-0.2,0.2
	c0,0.8,0.2,1.6,0.4,2.3l1.5-0.5l0.6,0.5v0.2l-1.3,0.4l-0.8-0.1l0.2,3.3l8.9-0.4c1.3-0.2,2.1-0.6,2.2-1.3c0.2,0,0.5,0.4,0.9,1.1
	l1.2-0.2l20.2-1c2.9-0.2,5.7-0.6,8.5-1.2l0.4,0.7l2.5-0.3c0.4,0,0.7-0.5,0.6-1.6l-0.1-1c-0.7-2.5-1.8-3.8-3.3-3.7l-0.9-0.2
	c-0.7,0.2-1.5,0.5-2.1,1c0-0.4-0.7-0.5-2.2-0.6l-9.5,0.7c-0.7,1.2-1.3,1.8-1.6,1.8l0.3-1.8l-7.1,0.4L322.9,14.6z M352,16.7
	c0.1-0.6,0.2-0.9,0.3-0.9c0.5,0.6,1,1,1.4,1v0.3l-0.2,0.2C353,17.3,352.5,17.1,352,16.7L352,16.7z M348.7,17.4l1.5,0.5l1.1-0.2
	l0.3,0.9l-0.2,0.3h-0.2c0-0.6-0.2-0.9-0.3-0.9l-1.5,0.4h-0.7V17.4z M339.3,22.1c-1.7,0.1-3.5,0.3-5.3,0.6c-2.9,0.2-4.4,2-4.6,5.4
	l0.1,0.9c0.1,0.7,0.3,1.4,0.7,2c-0.4,0.4-0.7,1.1-0.6,1.8c0.2,1.5,0.4,2.3,0.7,2.3c0.6-0.4,0.9-0.6,0.9-0.8c0-0.4-0.3-0.9-1-1.4
	v-0.4c0.5,0,0.9-0.2,1.3-0.5h0.2c0.1,1,0.5,1.4,1.3,1.4l-1.4,1.2v0.2l0.3,0.4l0.4-0.4h0.2l0.3,1v0.2l-2.5-0.4l-0.2,0.7l0.7,9
	l-0.1,1.1c0.8,0.1,1.2,0.2,1.2,0.4c-0.8,0.3-1.2,0.4-1.1,0.6l0.2,4.5l0.3,2c-0.2,0-0.3,0.5-0.3,1.5l0.3,0.9l0.5-0.2
	c0.8,0.2,1.2,0.4,1.2,0.6v0.4l-0.4,0.2l-1.2-0.4l-0.2,0.3v2.2c0.1,0.7,0.2,1,0.5,1c0.4-0.7,1-1.1,1.7-1.4l0.4,0.1V59l-2.4,1.4
	c0.1,1.8,0.7,3,1.8,3.5l1.1-1h0.2v0.4c-0.7,0.2-0.9,0.4-0.9,0.6c0,0.3,0.4,0.4,1.1,0.5l0.9-0.4c0.8-0.9,1.9-1.5,3-1.6
	c-0.1-0.7,0.2-1.4,0.7-1.9c0-0.3-0.4-0.4-1.2-0.4l-1.4-1.5h-0.2c0,0.4-0.2,0.5-0.7,0.8v-0.2l-0.2-0.2c0.6-0.5,1.3-0.9,2.1-1.1
	l-0.5-0.5c0.2-0.9,0.5-1.3,0.9-1.3l0.6,0.1h0.2v-0.7l-0.6-7l0.2-1.8c0-0.6,0.7-0.9,2.2-1c1.4,0,2.8,0.4,4.1,1.1
	c2.8,1.8,4.4,2.6,4.7,2.6V50h-0.2l-0.8-0.1h-0.2l-0.2,0.2v0.3c2.5,3.2,3.8,5,3.8,5.3l1.7-0.7h0.4c-0.9,0.5-1.3,1.1-1.2,1.8V57
	c0,1.2,0.8,2.3,2.1,2.5l-0.1,0.6c0,0.6,0.7,1.1,1.8,1.8l-0.2,0.4c0,0.2,0.4,0.4,1.1,0.7l0.9-1.3h0.7l0.3,1l1.5-0.8
	c1.5-0.4,2.2-0.9,2.2-1.6v-0.2c-0.2-1.1-0.7-2-1.5-2.8v-0.2h0.4v-0.4l-0.3-0.4c-1.2-0.2-1.9-0.4-1.9-0.6l0.7-0.9v-0.4l-0.2-0.4
	c-1.1-2.5-3.7-5.6-7.9-9.2c0.2-0.8,0.3-1.1,0.5-1.1h0.2l0.4,0.5c0.8-0.1,1.6-1.1,2.3-3.2l1,1.2h0.2c0.2,0,0.2-0.3,0.3-0.7
	c2.5-2.1,3.8-5.3,3.4-8.7l-0.1-1.1c-0.2-3-1.7-5.5-4.8-7.6C354.3,22.2,348.7,21.6,339.3,22.1z M350.8,25.3l1.8,0.6
	c-0.1,0.3-0.2,0.5-0.5,0.6c-0.4-0.4-1-0.6-1.5-0.6v-0.2L350.8,25.3z M352.3,27.9c1.7-0.4,2.8-1,3.2-1.3l0.9,2.3
	c-0.6,0.2-1.2,0.4-1.7,0.8c0-0.8-0.8-1.3-2.4-1.6V27.9z M337.5,29.3c3-0.5,4.5-1.1,4.5-1.6h0.2v0.6c5.3,0.3,8.5,0.8,9.7,1.5
	c0.1,0.9,0.7,1.6,1.7,2.1c-0.5,1.1-0.8,3.1-0.9,6V38l-0.7-0.1h-0.2l-1.7,1v0.4l1.1-0.1c0,0.2-0.2,0.4-0.7,0.6l-2.2-0.4l-0.2,0.3v0.2
	l0.4,0.4h0.2l-0.1,0.4v0.2l1.5-0.1l0.4,0.4v0.2l-1.2-0.3h-0.4l-0.2,0.3v0.3c0.1,0.2,0.3,0.4,0.7,0.5c0.5-0.1,1-0.4,1.3-0.8v0.4
	c0,0.7,0.5,1,1.4,1c-0.2,0.4-0.6,0.8-1.1,0.8h-2.1c-0.2-1.1-0.5-1.7-1-1.7c-0.2,0-0.4,0.1-0.4,0.4l0.1,1.4H347v0.4l0.2,0.3l0.7-0.6
	h0.2c0,0.6-0.4,0.9-1.1,1h-0.4c-0.3,0-0.7-0.8-0.8-2.5v-0.3h0.2l0.2,0.2h0.4c0.6-0.1,1.1-0.5,1.4-1.1c-0.7-0.8-1.8-1.1-2.9-1l-7,0.5
	H338c-0.2-1.1-0.5-2.1-1-3.2c0-0.2,0.2-0.4,0.7-0.4l-0.3-0.9l0.1-1.6c0-0.4-0.2-0.5-0.4-0.5c0.4-1.2,0.6-2.5,0.5-3.8V29.3z
	 M349.6,28.3l0.4-0.4h0.6c0.7,0,1.1,0.1,1.1,0.4l-0.4,0.2L349.6,28.3z M333.2,31.8c0.3-1.1,0.9-1.8,1.6-1.8h0.2
	c-0.7,0.8-1.1,1.8-1.1,2.8C333.7,32.7,333.4,32.3,333.2,31.8z M332.5,36.9c0-0.4,0.7-0.8,2.1-1.2h0.2c0.1,0.4,0.2,0.7,0.6,1
	l-2.7,0.3L332.5,36.9l-0.1,0.2L332.5,36.9z M357.5,37.7c0.6-0.8,1.4-1.3,2.4-1.4h0.2v0.2l-0.2,0.2c-1.2,0.4-1.9,0.9-1.8,1.4v0.2
	l0.2,0.2h-0.2L357.5,37.7z M332.1,39.3c0.1-0.4,0.2-0.7,0.5-0.8l1.1,0.1l-1.1,1.4C332.3,40,332.2,39.8,332.1,39.3L332.1,39.3z
	 M334.6,48.5l1.1-0.1V49l0.3,0.9h-0.2l-0.2,0.2c-0.5-0.4-0.9-0.8-1.1-1.4L334.6,48.5z M331.3,53.4l0.2-0.3h0.2
	c0.2,0,0.4,0.3,0.6,0.7l-0.2,0.3L331.3,53.4z M334.6,59.7h0.2c0.4,0.2,0.7,0.5,0.7,1c0,0.4-0.1,0.8-0.3,0.9l-0.3-0.7l-1.3,0.5h-0.2
	v-0.6C334.2,60.8,334.6,60.4,334.6,59.7L334.6,59.7z M336.3,61.6c0.2-0.4,0.5-0.6,0.9-0.6h0.2l0.2,0.3v0.7h-0.2L336.3,61.6z
	 M360,65.4l-17.2,1.8l-1.5-0.1v0.3l1.6,0.9l-0.2,0.3h-0.4l-0.8-0.8c-0.5,1.1-1,1.7-1.6,1.7v0.2l0.6,1l-0.7,2.2v0.2l9.9-0.3l5.1-0.3
	l9.4-0.8v-0.3h-0.2v-0.2l1.1-0.4h0.2l-0.2,0.7l0.2,0.3h0.2c0.7-0.2,1.2-0.6,1.7-1.1h0.2c0,0.7,0.5,1,1.4,1h0.7l0.2-0.3l-0.2-4.2
	l-0.2-0.3c-0.3,0.1-0.7,0.2-0.9,0.5h-0.2l-0.2-0.3V67l0.2-0.2c1-0.4,1.5-0.6,1.5-0.8v-0.6l-0.2-0.3h-0.6c-0.3,0.4-0.7,0.8-1.3,1
	h-0.2v-0.2l0.2-0.2v-0.2c0-0.4-1.6-0.5-4.8-0.4L360,65.4z M337,66.9c-2.1,0.3-4.1,0.7-6,1.5v-0.2c0-0.2,0.4-0.4,1.3-0.6v-0.3
	l-8.2,0.4l-0.2,0.3v0.4l0.5,4.5l-0.1,0.9V74l0.2,0.2L325,74l4.8-0.1c0.9-0.2,1.3-0.5,1.3-1h0.2c0.7,0.6,1.6,0.9,2.6,0.9
	c1.4-0.2,2.7-0.7,3.9-1.5v0.4c0.6,0,1.2-0.3,1.6-0.8v-0.2l-0.2-0.2l-0.7,0.2l0.1-1.1v-0.3l-1.6-0.4l2.1-2.9l-0.2-0.3H337z
	 M325.6,69.4c0-0.4,0.2-0.7,0.9-0.9c1,0,1.5,0.2,1.5,0.4L325.6,69.4L325.6,69.4z M334.4,70c0-0.2,0.2-0.3,0.7-0.4h0.2l-0.3,1.3
	c0.1,0.4,0.3,0.7,0.7,0.7v0.3l-0.9,0.2h-0.2v-0.7c0-0.3-0.3-0.4-1-0.4c0-0.2,0.3-0.4,0.9-0.6h0.2L334.4,70z M342.2,70.4l1.6-0.3
	c0.4,0,0.7,0.1,0.8,0.4c-0.5,0.6-1.2,1-2,1.1h-0.2L342.2,70.4z M357.6,12.6l-0.2,0.3l0.1,2l0.2,1.3l-0.1,1.1l0.1,1.4
	c0,0.2,0.2,0.3,0.6,0.4l3.1-0.4l1.1,0.3l0.2-0.3v-0.3c-0.7-0.1-1.1-0.2-1.1-0.4l1.7-0.1l0.2-0.3c0-0.4-0.7-0.6-2.2-0.9
	c0-0.2,0.3-0.4,0.9-0.5c1.1,0.1,1.6,0.5,1.6,1.2l-0.7,1.1v0.2l2.7-0.2l0.2-0.2c-0.4-0.9-1-1.8-1.6-2.5l-3.5-0.7h-0.2
	c-0.2,0.9-0.4,1.3-0.6,1.3c0-0.6-0.2-0.9-0.4-0.9l-1.5,0.1c0.2-0.4,0.4-0.9,0.5-1.3h0.2l1,0.7l0.4-0.4l-1-0.7v-0.2l0.2-0.2l1.5,0.2
	h0.2c0.2,0,0.3-0.3,0.5-0.9c0.6,0.2,1.1,0.4,1.5,0.8c1.6,1.9,2.9,2.9,3.8,2.8h0.2l0.2-0.3l-1-1v-0.2l3.1-0.4h0.2l-0.2,0.3l0.3,1.4
	l0.8-0.2h0.2c-0.2,0.4-0.5,0.7-0.5,1.1v0.3l0.3,0.4l0.2-0.2l3.3,0.3h0.6c0.1-0.9,0.2-1.3,0.3-1.3h0.2l0.4,0.3l1.1-0.4v0.2l0.2,0.2
	c0,0.2-0.2,0.3-0.5,0.4l0.2,0.3l1.2-0.1l0.2-0.3l-0.1-1.4l1,0.3h0.4c0.5-0.5,1.1-0.9,1.7-1.1h0.7v-0.4l-0.6-0.7v-0.2l0.9-0.2h0.2
	c0.6-0.1,1.1,0.4,1.4,1c-1.4,0.1-3,1.1-4.8,3v0.2h0.2l0.2-0.2l1.3-0.1l9-0.2h0.2c1.9-0.1,3.7-0.4,5.5-1.1c0.7,0.6,1.6,1,2.5,0.9
	l1.3-0.1l0.2-0.3l-0.2-4.6c0-0.6-0.2-1.2-0.5-1.7l-2.7,0.3l-0.8,0.1l-12.2,0.4h-0.4c-2.5,0.1-4.9,0.6-7.2,1.6c0-0.5-0.6-0.9-1.6-1.1
	h-0.7l-0.8,0.4l-3.3,2c-0.7-0.9-1.2-1.4-1.4-1.4l-0.2,0.7h-0.4l0.2-0.6l-1.4-0.8l-0.8,0.1l-1.1,1.1c0-0.6-1-0.9-2.9-1l-2.5,0.3
	L357.6,12.6z M364.2,12.9l0.4-0.2l1.5,0.6c0,0.7,0.3,1,0.8,1v0.2c-0.3,0.1-0.7,0.3-0.9,0.6h-0.2v-0.2
	C364.8,14.1,364.2,13.4,364.2,12.9L364.2,12.9z M372.2,12.9l0.7-0.4h0.2l0.8,0.8l-1.1,0.6l-0.6-0.8V12.9z M371.7,13.7l1,0.3v0.2
	l-0.4,0.2c0,0.2,0.2,0.3,0.4,0.3v0.3h-0.6c-0.3-0.1-0.6-0.4-0.7-0.7L371.7,13.7z M393.7,14c-0.1-0.9,0.4-1.4,1.4-1.7
	c0.2,0,0.3,0.3,0.4,0.7C395.5,13.3,394.9,13.6,393.7,14L393.7,14z M373.2,15c0.2-0.5,0.7-0.9,1.1-1h0.2c-0.3,0.4-0.5,1.1-0.6,1.6
	h-0.2C373.9,15.3,373.7,15.1,373.2,15L373.2,15z M368.6,16.8c-0.3,0.1-0.7,0.2-0.9,0.5l1.1,0.7h0.2l0.2-0.3v-0.4l-0.4-0.4
	L368.6,16.8z M386.9,20.2c-1.5,0.1-3,0.4-4.4,0.7v0.3l0.7,0.4l-0.2,0.3h-0.4c-0.7,0-1.2-0.4-1.4-1.1h-0.2c0,0.4-0.2,0.6-0.7,0.6
	c-0.7-0.4-1.6-0.5-2.3-0.6c-0.9,0.1-1.9,0.4-2.6,0.9c-1.6-0.4-3.1-0.5-4.8-0.4l-1.7,0.1c-2.3,0.1-3.8,1.1-4.4,3.2
	c0.1,0.4,0.2,0.5,0.4,0.5l1.2-0.1l0.2-0.2c0.6,0.3,0.8,0.6,0.8,0.8l-0.5,0.4l-1.5-0.5h-0.6l-0.2,0.3l1.2,1v0.4
	c-0.8,0.5-1.2,1-1.3,1.2l0.5,8.1l0.2,3.6l-0.1,1.8l1,0.4h0.2c1.6-2.2,2.6-3.3,3.2-3.3v-0.2l-0.7-0.7v-0.2c0.6,0,0.8-0.2,0.8-0.4
	c-0.2-0.4-0.5-0.5-0.8-0.5v-0.2h0.2c1.1,0.4,1.6,1,1.7,1.9v0.4c0,0.5-0.2,1-0.5,1.3l-1.5-0.5l-0.8,0.2c-0.4,1.8-0.8,2.8-1.2,2.8
	h-0.2l-1-0.1v0.2l-0.2,0.2l0.1,0.9l0.5,2.1l-0.2,1.6v0.2l1.9,0.2c1.2-0.2,2.5-0.5,3.6-1.1v-0.2l-0.2-0.3c0-0.5,0.2-1,0.6-1.3h0.4
	l1,0.8l0.5-0.6l-0.1-1.3l0.2-0.3l2.5-0.2l7.9-0.7l2.9,0.1v-0.2l-0.2-0.9c0-0.7,0.5-1.2,1.6-1.6h0.2c-0.7,0.9-1.1,1.6-1.1,2.1v0.2
	l0.2,0.3l1.5-0.1c2.3-0.1,3.4-1.1,3.4-3.1v-0.2c0-0.6-0.2-1.1-0.6-1.6c-1.1-1.3-3.1-1.8-5.9-1.7c-2.1,0.2-4.3,0.7-6.2,1.5v0.3
	c0.7,0,1.4,0.1,2.1,0.4v0.2H381c-0.2,0.8-0.5,1.1-0.7,1.2h-0.2l-0.2-0.2v-0.2l0.2-0.2v-0.3l-1.6-1.1l0.1-0.4v-0.2l-1.2,0.4
	c-1.3-0.4-2.6-0.6-3.9-0.6l-0.8,0.1l-0.2,0.2c-0.4,1.6-0.9,2.4-1.5,2.4h-0.2c0.7-1.2,1-2.5,1.1-3.9c-0.1-1.1-0.4-2-1-2.8
	c0.7,0,1.1-0.5,1-1.3l-0.4-3.4c0-0.7,0.7-1.1,2.2-1.1L380,27h0.2c1.1,0,2.1-0.4,3-1.1h0.2c0,0.2,0,0.4-0.1,0.4s-0.2,0.2-0.4,0.2v0.3
	l5.4-0.2c2.5-0.2,3.9-1.1,4.2-2.8v-0.2c-0.8,0.1-1.4-0.7-1.7-2.2v-0.3h0.2l0.7,0.4l0.2-0.3v-0.2C391.6,20.5,389.8,20.2,386.9,20.2
	L386.9,20.2z M365.5,23c0.4-0.5,1.1-0.9,1.7-0.8l2.5,0.4v0.2l-0.7,0.2l-3.4,0.1L365.5,23z M380.1,21.8l1.8,0.4v0.2l-0.2,0.3
	l-1.8-0.4v-0.2L380.1,21.8z M376,24.2l0.7-0.2l0.8-0.1c0.2,0,0.4,0.2,0.4,0.7h0.2v-0.3h0.2v0.2c-0.3,0.5-0.9,0.9-1.6,1
	c-0.2-0.8-0.4-1.1-0.7-1.1V24.2z M366.6,27.5l0.8,0.1h0.2l0.2-0.2l0.1,1.3c-0.8-0.2-1.2-0.4-1.2-0.6V27.5z M369.1,41.6
	c0.5,0,1.5-0.6,2.9-1.8l0.7,0.4c0,0.2-0.3,0.4-1.1,0.5c0,0.4,0.2,0.8,0.6,1l1.1-0.1v0.3c0,0.2-0.2,0.4-0.7,0.6l-1.5-0.1h-0.2
	l-0.2,0.2l0.3,0.7v0.2l-1.4-0.2v0.2l-0.2,0.2v0.7l-1-0.4v-2.2v-0.2H369.1z M380.7,40.4l0.4-0.2l1.8,0.9h0.2c0,0.6-0.4,1.1-1.3,1.4
	h-0.2v-0.2l0.2-1.3C381.6,40.6,381.3,40.5,380.7,40.4L380.7,40.4z M371,41.3c-0.7,0-1.3,0.4-1.7,1v0.3l1.1-0.1
	c0.4,0,0.7-0.2,0.8-0.4v-0.6L371,41.3z M371.9,46.8c-0.6,0.9-1.8,1.4-3.7,1.5l-1.3,0.1c-0.6,0.1-1.2,0-1.7-0.2v0.2l-0.2,0.2v0.7
	l0.7,0.7c-0.4,1.2-0.6,2.6-0.5,3.9l0.1,1.8c0.1,1.5,0.4,3,0.7,4.4c0.1,1.7,2.3,2.3,6.7,2.1l2.4-0.2c1.9-0.1,3.7-0.4,5.5-1.1
	c2.5,0.4,5.2,0.5,7.7,0.4l1.9-0.1c3.4-0.2,5-1.7,4.9-4.3l-0.2-0.7c-1-1.6-3.2-2.3-6.8-2.1l-4,0.3l-0.4,0.6v0.2l-2.1-0.2h-0.6
	c-0.7,0-1.1,0.3-1.1,0.6c-1.8-0.5-3.6-0.6-5.4-0.4c-1,0.1-1.9-0.6-2.1-1.6c0.5-0.4,0.7-1.7,0.7-3.8l-0.2-2.9l-0.2-0.3H371.9z
	 M367.7,54.5c-0.1-1.7,0.6-2.5,2.1-2.5c-0.2,1.7-0.9,2.5-1.9,2.5H367.7z M372.3,57.8l0.4-0.2l1.1,0.3c-0.7,1.5-1.2,2.2-1.5,2.3
	l-0.2-0.2l0.5-0.8l-0.1-0.9L372.3,57.8L372.3,57.8z M387.5,59.1l0.7-0.2h0.6l0.1,1.1l0.3,0.4v0.2h-0.4
	C388.1,60.1,387.7,59.6,387.5,59.1L387.5,59.1z M399.2,63.3c-1.5,0.3-2.9,0.9-4.1,1.7h-0.2c0-0.2,0.2-0.4,0.8-0.4v-0.6l-9.9,0.3
	c-2.5,0.2-4.9,0.5-7.4,1v0.3h0.4v0.3l-0.4,0.2c-0.3-0.2-0.7-0.3-1.1-0.3v-0.2l0.2-0.4v-0.3l-0.2-0.2l-1.2,0.2l-1.7-0.1
	c-1.6,0.1-2.5,0.4-3.2,1.2h-0.2l-1.1-1h-0.2c0.1,0.9-0.8,1.3-2.5,1.4H367c-0.2,0-0.3-0.4-0.6-1h0.2l-0.2-0.3l-6.1,0.4l-0.2,0.3
	l0.2,4c0,0.2,0.3,0.4,1,0.5c1.1-0.5,2.4-0.9,3.6-1.1h0.4c1.1-0.2,2.3,0.3,3.1,1.1c-1.2-0.3-2.5-0.4-3.7-0.4H364
	c-1.2,0.1-2.5,0.5-3.6,1.2v0.3l6.7,0.1l17.1-1.1h0.2c0.4-0.8,1.2-1.3,2.1-1.4h0.2v0.3c-1,0.3-1.5,0.5-1.5,0.8v0.2l0.2,0.2h0.2
	l0.2-0.2l1.1-0.1l2.1,0.2h0.2c0.4,0,0.8-0.4,0.9-0.8l-0.3-0.5v-0.2c0.4-0.1,0.9-0.9,1.5-2.3c0.6,0.2,0.9,0.4,1,0.7v0.2l-0.8,0.2v0.3
	l0.7,0.1l4.3-0.3l1.3-0.2c0,0.8,0.5,1.1,1.2,1.1V69l-0.4,0.2c-0.4,0-1-0.4-1.6-1.2h-0.2l-0.2,0.2l-0.4,0.6h-0.4l-0.8-0.7
	c-0.2,0-0.2,0.3-0.2,0.7l-1.1,0.1l-0.5,0.4c0,0.5,2.7,0.6,8.1,0.4l0.2-0.4v-0.4l-0.6-3.6l0.2-1.1C400.7,63.7,399.9,63.3,399.2,63.3
	L399.2,63.3z M369.5,66.5l1.2-0.4h0.2l0.2,0.2l-0.7,0.6l0.5,1.2v0.2c-1-0.6-1.6-1.2-1.6-1.8L369.5,66.5z M383,67.7
	c0-0.3,0.2-0.4,0.8-0.4c0.1-0.6,0.2-0.9,0.3-0.9h0.2c0.9,0,1.4,0.3,1.4,0.8v0.2l-1.3,0.1l-1.5,0.5V67.7z M372.3,69.9
	c0-0.4,0.5-0.6,1.5-0.8h0.2l0.4,0.4v0.3L372.3,69.9z M374.9,70c0.1-0.4,0.4-0.7,0.7-0.6l1.1-0.1v0.2c-0.1,0.3-0.3,0.4-0.8,0.4
	L374.9,70z M388.4,69.7l0.4-0.2h0.2l-0.4,0.4L388.4,69.7z M407.4,9.9l-17.9,1l-0.2,0.2l0.3,3.4v2.7l0.2,0.2l0.2-0.2l6.3-0.2l2.1-0.3
	v-0.3c-0.6-0.2-0.8-0.4-0.8-0.5v-0.4c1.4,0.3,2.2,0.7,2.6,1.3l0.9-0.2l16.4-0.9L434,15v-0.2l0.2-0.2l-0.4-6L432.7,9l-3.8-0.3h-0.7
	c-0.5,0-0.9,0.2-1.3,0.5l0.5,1.1v0.3c-0.5,0-1.1-0.5-1.7-1.7l-9.5,0.5c-0.9,0-1.9,0.4-2.6,0.9c-0.4-0.4-1.1-0.7-1.6-0.6L411,9.8
	c-2,0.4-3,0.9-2.9,1.3H408C407.7,10.4,407.6,9.9,407.4,9.9L407.4,9.9z M397.6,11.7l1.2,0.3v0.2l-0.5,0.9h-0.2
	c-0.2,0-0.3-0.3-0.4-0.9L397.6,11.7z M391.6,13.7l1.2-0.4l0.1,1l-0.9,0.1l-0.2-0.3L391.6,13.7z M421.4,13.3l1.4-1.2l0.3,0.7
	c-0.3,0.5-0.9,0.8-1.5,0.8L421.4,13.3z M424.7,13.9l1.7-0.7l0.1,1H426l-1.5-0.1c-0.2,0-0.4,0.4-0.3,0.9h-0.2l-0.2-0.2l0.2-1.1
	L424.7,13.9L424.7,13.9z M405.6,16c0.4-0.7,0.8-1.1,1.1-1.1l0.6,0.3c0,0.4-0.3,0.7-1.1,0.8H405.6z M419.1,18.2l-4.2,0.4l-1.7,0.1
	l-1.6,0.3v-0.2h-0.4c0.1,0.9-0.4,1.3-1.3,1.5l-0.3-0.7l-2.6,1.6h-0.2l0.1-0.4c0-0.3-0.4-0.6-1.1-1.1l0.2-0.4V19l-0.2,0.2l-5.3,0.2
	c-1.2,0.1-2.5,0.4-3.6,0.8c-0.7,0.5-1,1.5-0.9,2.9v0.6c0.1,0.4,0.2,0.7,0.3,0.7c0.1,1.1,1.6,1.8,4.8,1.8l1.7-0.1
	c3.1-0.2,4.9,0,5.6,0.4l0.6,14.6c0.2,2.1,0.5,4.1,1,6.1c-0.3,1-0.5,2-0.5,3.1c0.1,1.1,0.6,2.1,1.3,2.8h-0.6c-0.6,0-0.8,0.4-0.7,1.2
	l0.1,0.9c0.2,2.7,1.6,4.5,4.3,5.1h0.6c1-0.2,1.9-0.8,2.5-1.8l-0.2-0.3H416l-1.7,0.8h-0.2l0.5-0.8c0-0.2-0.2-0.4-0.7-0.4v-0.2h0.4
	l3,0.1c0.4,0,0.7-0.8,0.6-2.2c-0.1-0.5-0.3-1.1-0.6-1.6c0.2,0,0.4-0.1,0.4-0.4l-0.1-1.8l-0.2-0.2l-1.2,0.4c-0.3,0-0.7-0.2-0.8-0.5
	v-0.2h0.2l0.2,0.2h0.2l1.7-0.7l-1.3-25.3l0.2,0.2l2.8-0.6c0.8-0.1,1.3-0.7,1.4-2.1c1.1,0.5,2.1,0.9,3.3,1v0.2
	c-0.7,0-1.1,0.3-1.1,0.6V25l0.2,0.3l1-0.1c1.8-0.2,2.7-0.4,2.6-0.9v-0.2l-0.8,0.1l-0.9,0.2v-0.2h-0.2v-0.3l0.7-0.2l2.1,0.4
	c0.9-0.8,1.4-1.9,1.5-3.1v-0.4C428.6,18.7,425.4,17.9,419.1,18.2L419.1,18.2z M414.1,21.4c-0.1-1,0.8-1.8,2.7-2.5
	c-0.7,2.4-1.5,3.5-2.4,3.6H414v-0.2l0.4-0.2L414.1,21.4z M410,21.7c0-0.2,0.2-0.4,0.7-0.4l1.5,0.4c0,0.4-0.3,0.7-1.1,0.8h-0.2
	l0.1-0.7H410z M423.4,22.4c0.3-0.6,0.9-1,1.6-1.1l0.4,0.1c-0.6,0.8-1.1,1.2-1.4,1.2L423.4,22.4z M404.3,25.1
	c0.3-1.1,0.9-1.7,1.6-1.7c0.4,0.2,0.7,0.4,0.7,0.5v0.3l-0.8,0.1C405.4,24.7,404.9,25,404.3,25.1L404.3,25.1z M411.4,25.8
	c0.7,0,1,0.3,1,0.8l-0.2,0.7l0.2,0.2c1.6,0.2,2.3,0.4,2.3,0.9l-0.2,0.3c-0.7-0.7-1.7-1-2.7-0.9l0.2-0.4L411.4,25.8L411.4,25.8z
	 M411.4,29.5h0.2l2.4,1.1c0,0.2-0.2,0.4-0.7,0.6l-1.5-0.2l0.1-0.7V30c0-0.2-0.2-0.3-0.4-0.3L411.4,29.5z M411.7,32.8l1.9,0.6v0.2
	l-1.3,0.4h-0.2v-0.2h0.2v-0.3c0-0.3-0.3-0.4-0.8-0.4V33L411.7,32.8z M412.3,34.9h0.4l2.4,1.1v0.6l-0.2,0.2l-1.1-0.3l-0.2,0.3
	c-0.7-0.3-1.2-0.9-1.3-1.7V34.9z M411.7,44.9h0.7c0.6,0.7,0.9,1.1,1.1,1.1l-0.4,0.4c-0.6,0-1.1-0.2-1.6-0.5L411.7,44.9z M414,47.8
	l1.3,0.1l-0.2,0.6l-1.3-0.1L414,47.8z M411.2,50.4l0.4-0.4l2.3-0.1v0.4c-1.1,0.1-1.6,0.4-1.6,0.8C412,50.7,411.6,50.4,411.2,50.4
	L411.2,50.4z M406.5,63.2l-14.1,1c-0.2,0-0.4,0.1-0.4,0.4l0.1,1.1c0,1,0.3,1.8,0.9,2.5c-0.6,0-0.8,0.2-0.8,0.4l0.1,1.6l0.2,0.3
	l1.2-0.1c4.9-0.3,8.9-0.6,12-1l3.6,0.1c0.2-1,0.3-1.5,0.5-1.5h0.2v0.2l-0.2,0.4v0.6l0.2,0.3l1.6-0.1c0.9-0.1,1.3-0.4,1.3-1.1
	c0.6,0.4,1.2,0.7,1.9,0.8c0.5,0,0.9-0.4,1.1-1l0.4,0.4l-0.1,0.4v0.2l20.2-1.1l0.2-0.3l-0.1-0.9c0-0.6-0.3-1.1-0.9-1.2l0.7-0.8
	l-0.2-1.4l0.1-1.4c-5.1,0-10,0.1-14.7,0.4c-3.1,0.1-6.2,0.5-9.3,1.2C410.5,63.3,408.5,63.1,406.5,63.2L406.5,63.2z M410,63.7
	c1.5,0.5,2.2,0.9,2.2,1.1v0.2h-0.2l-1.1-0.4l-0.4,0.4c-0.2,0-0.4-0.4-0.6-1.1V63.7z M405.6,65.8c0-0.4,0.4-0.7,1.3-1.1h0.2
	c-0.2,0.5-0.5,1-0.9,1.3H406L405.6,65.8z M397.8,66.7h0.2l0.2,1v0.3h-0.4c-0.4-0.4-0.7-0.7-1-0.7v-0.2h0.2l0.6,0.1
	C397.7,67.2,397.8,67.1,397.8,66.7L397.8,66.7z M406.3,68.1l0.4-0.4h0.2c1-0.1,1.5,0.1,1.5,0.4v0.2c0,0.2-0.2,0.4-0.7,0.4
	C406.9,68.5,406.4,68.3,406.3,68.1z M425.9,9l-0.2,0.2l0.2,1.8l0.2,3.3c0,0.7,0.2,1.1,0.5,1.1l3.1-0.2c0.7,0,1.6-0.3,2.1-0.9
	c0.1,0.4,0.2,0.7,0.4,0.7l13.3-0.8c0.6-0.8,1.6-1.3,2.5-1.3v0.3c-1.1,0.2-1.6,0.4-1.6,0.7l0.2,0.3l3.4-0.2l1.4-2.3h0.2l0.2,0.5
	c0,0.2-0.2,0.6-0.9,1.2v0.2l11.2-0.2c3.8-0.2,7.6-0.5,11.3-1.2l-0.7-4.7l0.1-1.1V6.2l-43.2,2.5L425.9,9z M439.9,9l0.8-0.1
	c0.2,0,0.3,0.3,0.4,0.9c-0.2,0.7-0.4,1.1-0.7,1.1h-0.2l-0.2-0.2l0.1-0.7V9.3L439.9,9z M454.3,9.7l0.9-0.4v0.2c1.3,0.4,1.9,0.8,2,1.2
	c-1.9-0.3-2.9-0.5-2.9-0.9V9.7z M446.7,16.4l-0.4,0.4c0.1,1.5-0.4,2.4-1.4,2.4h-0.2v-0.3c0.7-0.6,1-1.2,1-1.7V17l-0.2-0.2
	c-2.7,0.2-5.3,1.2-7.2,3.2c-4.4,4.6-6.5,10.6-6.2,17.9l0.1,1.4c0.2,4.8,1.8,9.4,4.6,13.1c2.6,2.5,4.5,3.6,5.7,3.6h0.2l-0.1,0.4v0.3
	c0.7,1,4.2,1.5,10.5,1.8c3-0.2,4.9-1,5.7-2.5v-0.2h-0.7l-0.2-0.3v-0.2l0.2-0.4v-0.3l-0.2-0.2l0.5-0.2c1.4,0,2.8,0.2,4.2,0.5
	c0.7-0.3,1.5-0.8,2-1.4c3.8-4.3,5.4-10.2,5.1-17.9c-0.1-3-0.7-6-1.8-8.7c-0.9-0.3-1.4-0.5-1.4-0.8l0.5-0.6v-0.4
	c-3.3-6.4-9.3-9.4-18.2-8.9L446.7,16.4z M448.5,17.9l1.1-0.1c0.4,0,0.7,0.1,0.8,0.4v0.3c-0.2,0.4-0.5,0.7-0.9,0.6l-0.9,0.1
	L448.5,17.9z M438.8,23.6c0.2-0.6,0.7-1,1.3-1.1h0.4c0,0.7-0.5,1.1-1.6,1.1H438.8z M440,37.9c-0.1-2.3,0.2-4.6,0.7-6.8
	c1.4-5.3,4.5-8.1,9.3-8.3h0.2c4.4-0.3,7.6,1.9,9.8,6.5l0.8-0.4h0.2l-0.2,1.8l0.9,7.9l0.1,0.9l-0.2,2.7c0,0.2,0.1,0.4,0.2,0.4
	c0.1,0.1,0.2,0.2,0.4,0.1v0.2c-1.5,0.8-2.2,1.9-2.1,3.4v0.4l0.2,0.2c-2,1.4-3,2.6-3,3.6l-0.6-0.3c-1.5,0.3-2.2,0.9-2.2,1.8
	c-3.5,0.2-7.6-1-12.1-3.5l0.2-1.1v-0.2l-1.2-2.4l-4.3,1.7h-0.2c0.7-1.1,1.8-1.7,3-1.9l0.9-0.1l0.2-0.2
	C440.6,42.4,440.2,40.2,440,37.9z M461.4,27.2c0-0.4,0.4-0.5,1.3-0.6l1.9,0.2V27l-1.9,0.8L461.4,27.2z M433,35.7
	c0.1-0.4,0.2-0.6,0.4-0.6h0.2c0.7,0.6,1.2,1,1.6,1v0.2l-0.2,0.2L433,35.7z M437.3,36.6h0.2l1.1,1l-0.2,0.3l-1.5,0.1l-0.2-0.2
	l0.1-0.4C437.1,37,437.3,36.8,437.3,36.6L437.3,36.6z M460.8,53.4c0-0.3,0.2-0.4,0.8-0.4h0.7l0.2,0.3v0.4h-0.2l-1.1-0.3H461
	l-0.2,0.2V53.4z M438,61.5c-6.4,0.4-9.5,0.8-9.5,1.1l0.3,4.3l-0.1,1.3l0.6,0.3l15.6-1.1l0.9-0.1c0.3-0.6,0.9-1.1,1.6-1.2
	c0.5,0.1,0.7,0.3,0.7,0.4c0,0.3-0.2,0.4-0.5,0.4v0.3l5.5-0.4l21.9-1.1c0.7-0.1,0.9-0.3,0.9-0.5v-0.7l-0.3-3.2l0.1-1.8l-0.2-0.4
	l-0.2,0.2l-11.3,0.5c-1.7,0-3.4,0.4-4.8,1.4h-0.6l-1-1.1l-2.3,0.3L438,61.5z M445.9,64.4c0-0.3,0.4-0.4,1.3-0.6v0.3
	c-0.2,0.4-0.6,0.8-1.1,0.8h-0.2L445.9,64.4z"/>
</svg>
